<?xml version="1.0" standalone="no"?>
<!DOCTYPE svg PUBLIC "-//W3C//DTD SVG 1.1//EN" "http://www.w3.org/Graphics/SVG/1.1/DTD/svg11.dtd" >
<svg xmlns="http://www.w3.org/2000/svg" xmlns:xlink="http://www.w3.org/1999/xlink" version="1.1">
<metadata>
Created by FontForge 20161003 at Thu Feb  7 12:04:49 2019
 By www-data
Copyright (c) TYPADELIC FONTS, 2002. All rights reserved.
</metadata>
<defs>
<font id="blackjack" horiz-adv-x="717" >
  <font-face 
    font-family="blackjack"
    font-weight="400"
    font-stretch="normal"
    units-per-em="1000"
    panose-1="3 6 5 0 4 0 4 0 0 0"
    ascent="800"
    descent="-200"
    x-height="360"
    cap-height="754"
    bbox="-186 -521 970 995"
    underline-thickness="41"
    underline-position="-227"
    unicode-range="U+0020-2212"
  />
<missing-glyph horiz-adv-x="1000" 
 />
    <glyph glyph-name=".notdef" horiz-adv-x="1000" 
 />
    <glyph glyph-name=".notdef" horiz-adv-x="1000" 
 />
    <glyph glyph-name=".null" horiz-adv-x="0" 
 />
    <glyph glyph-name="nonmarkingreturn" horiz-adv-x="333" 
 />
    <glyph glyph-name="space" unicode=" " horiz-adv-x="250" 
 />
    <glyph glyph-name="exclam" unicode="!" horiz-adv-x="314" 
d="M235 777q27 0 38 -13.5t11 -42.5q0 -16 -9 -61q-4 -17 -26 -120.5t-41 -191t-23 -110.5q-6 -37 -30 -37q-15 0 -15 30q0 3 0.5 7t0.5 7q6 62 12.5 176.5t9.5 151.5q1 12 2 35.5t2 39t3.5 37.5t7.5 36.5t12 28t18.5 20.5t26.5 7zM141 0q-18 0 -29.5 11t-11.5 29
q0 20 8.5 35.5t26.5 15.5q16 0 29.5 -12t13.5 -28q0 -51 -37 -51z" />
    <glyph glyph-name="quotedbl" unicode="&#x22;" horiz-adv-x="307" 
d="M242 452q-14 0 -17 28l-15 175q0 14 9.5 24.5t23.5 10.5q13 0 23.5 -10.5t10.5 -24.5q0 -2 -3.5 -36.5t-7.5 -78t-5 -61.5q-2 -27 -19 -27zM132 452q-13 0 -18 26v2q-3 17 -8.5 93t-5.5 82q0 14 9.5 24.5t23.5 10.5q13 0 23.5 -10.5t10.5 -24.5q0 -11 -16 -176
q-2 -27 -19 -27z" />
    <glyph glyph-name="dollar" unicode="$" horiz-adv-x="632" 
d="M364 54q78 31 78 85q0 43 -70 103q0 -18 -5 -113zM317 643q-82 -45 -82 -106q0 -54 82 -127v233zM602 655q0 -40 -30 -67q-18 -16 -45 -31t-46 -15q-11 0 -18.5 7t-7.5 18q0 17 33 47.5t33 45.5q0 20 -49 20q-60 0 -85 -9q-3 -103 -11 -311q32 -27 51.5 -46t42 -45.5
t33.5 -53.5t11 -55q0 -109 -153 -155v-53q0 -46 -23 -46q-9 0 -15 6.5t-6 15.5v65q-71 -16 -159 -16h-17q-103 0 -111 30q0 16 7.5 20t24.5 4q16 0 48.5 -6.5t49.5 -6.5q83 0 157 20v248q-41 32 -64 52t-53.5 52.5t-44.5 65.5t-14 69q0 121 176 167v55q0 22 10.5 38t31.5 16
q14 0 22 -9.5t8 -23.5q0 -41 -1 -62q55 7 106 7q108 0 108 -58z" />
    <glyph glyph-name="percent" unicode="%" horiz-adv-x="808" 
d="M218 -41q-8 0 -14.5 6t-6.5 14q0 4 2 10l333 748q17 36 43 36q14 0 24.5 -7.5t10.5 -21.5q0 -8 -4 -19t-13 -28t-11 -22q-18 -37 -124.5 -255.5t-131.5 -267.5l-64 -129q-1 -1 -10 -23.5t-16.5 -31.5t-17.5 -9zM161 369q-52 0 -76.5 41t-24.5 96q0 84 54 162t134 78
q36 0 59.5 -23.5t32 -54t8.5 -66.5q0 -81 -54.5 -157t-132.5 -76zM251 699q-37 0 -69 -37.5t-48 -83.5t-16 -82q0 -94 47 -94q57 0 101 72.5t44 134.5q0 31 -15.5 60.5t-43.5 29.5zM561 -1q-52 0 -76.5 41t-24.5 96q0 84 54 162t134 78q36 0 59.5 -23.5t32 -54t8.5 -66.5
q0 -81 -54.5 -157t-132.5 -76zM651 329q-37 0 -69 -37.5t-48 -83.5t-16 -82q0 -94 47 -94q57 0 101 72.5t44 134.5q0 31 -15.5 60.5t-43.5 29.5z" />
    <glyph glyph-name="ampersand" unicode="&#x26;" horiz-adv-x="493" 
d="M450 117q-10 -10 -30 -26q40 -73 40 -82q0 -20 -31 -20q-21 0 -28 13l-31 61q-32 -28 -77.5 -45.5t-88.5 -17.5q-66 0 -112.5 41t-46.5 107q0 117 153 231q-34 70 -34 121q0 67 43 116t109 49q51 0 90 -31t39 -82q0 -63 -43 -110t-111 -89l108 -216q30 41 49 41
q9 0 16 -7.5t7 -16.5q0 -16 -21 -37zM326 626q-44 0 -72 -37t-28 -83q0 -45 22 -99q123 83 123 173q0 46 -45 46zM349 103l-110 225q-126 -100 -126 -203q0 -85 89 -85q60 0 147 63z" />
    <glyph glyph-name="quotesingle" unicode="'" horiz-adv-x="197" 
d="M132 452q-14 0 -18 28q-3 17 -8.5 93t-5.5 82q0 14 9.5 24.5t23.5 10.5q13 0 23.5 -10.5t10.5 -24.5q0 -11 -16 -176q-2 -27 -19 -27z" />
    <glyph glyph-name="parenleft" unicode="(" horiz-adv-x="366" 
d="M113 328q0 -181 94 -295q17 -20 40 -41q9 -9 9 -17q0 -24 -18 -24q-6 0 -14 6q-72 53 -117.5 125t-61 134t-15.5 125q0 130 79.5 251.5t194.5 205.5q8 6 14 6q18 0 18 -24q0 -8 -9 -17q-45 -42 -46 -43q-78 -82 -123 -183t-45 -209z" />
    <glyph glyph-name="parenright" unicode=")" horiz-adv-x="366" 
d="M253 427q0 181 -94 295q-17 20 -40 41q-9 9 -9 17q0 24 18 24q6 0 14 -6q72 -53 117.5 -125t61 -134t15.5 -125q0 -130 -79.5 -251.5t-194.5 -205.5q-8 -6 -14 -6q-18 0 -18 24q0 8 9 17q45 42 46 43q78 82 123 183t45 209z" />
    <glyph glyph-name="asterisk" unicode="*" horiz-adv-x="492" 
d="M416 408q0 -8 -7 -15t-15 -7t-15 7l-77 77v-109q0 -9 -6 -15t-15 -6t-15 6t-6 15v109l-77 -77q-7 -7 -15 -7t-15 7t-7 15t7 15l77 77h-109q-9 0 -15 6t-6 15t6 15t15 6h109l-77 77q-7 7 -7 15t7 15t15 7t15 -7l77 -77v109q0 9 6 15t15 6t15 -6t6 -15v-109l77 77q7 7 15 7
t15 -7t7 -15t-7 -15l-77 -77h109q9 0 15 -6t6 -15t-6 -15t-15 -6h-109l77 -77q7 -7 7 -15z" />
    <glyph glyph-name="plus" unicode="+" horiz-adv-x="429" 
d="M233 140v-142h-37v142h-136v34h136v140h37v-140h136v-34h-136z" />
    <glyph glyph-name="comma" unicode="," horiz-adv-x="282" 
d="M100 -103q0 4 9 17t18.5 36.5t9.5 50.5q0 7 -2.5 21.5t-2.5 20.5q0 17 12 30t29 13q34 0 34 -32q0 -14 -2 -26q-4 -31 -37.5 -85.5t-58.5 -54.5q-9 0 -9 9z" />
    <glyph glyph-name="hyphen" unicode="-" horiz-adv-x="481" 
d="M100 206q0 12 10 19t23 7l42 -3q43 -3 87 -3q20 0 42 0.5t49 1.5t42 1q26 0 26 -17q0 -7 -14 -11q-79 -20 -237 -20q-46 0 -58 4t-12 21z" />
    <glyph glyph-name="period" unicode="." horiz-adv-x="253" 
d="M141 0q-18 0 -29.5 11t-11.5 29q0 20 8.5 35.5t26.5 15.5q16 0 29.5 -12t13.5 -28q0 -51 -37 -51z" />
    <glyph glyph-name="slash" unicode="/" horiz-adv-x="442" 
d="M51 -41q-8 0 -14.5 6t-6.5 14q0 4 2 10l333 748q17 36 43 36q14 0 24 -7.5t10 -21.5q0 -7 -3 -17t-6.5 -16.5t-10 -19t-8.5 -16.5q-6 -12 -120 -246.5t-135 -276.5l-64 -129q-1 -1 -10 -23.5t-16.5 -31.5t-17.5 -9z" />
    <glyph glyph-name="zero" unicode="0" horiz-adv-x="515" 
d="M35 186q0 59 21.5 124t58 120t93 91t119.5 36q55 0 91.5 -36t49 -83t12.5 -101q0 -78 -36 -160.5t-105 -141.5t-150 -59q-54 0 -90.5 33.5t-50 78.5t-13.5 98zM114 170q0 -23 3 -46.5t11 -49.5t25 -42.5t42 -16.5q64 0 120.5 60t86.5 136t30 137q0 51 -27 99.5t-74 48.5
q-60 0 -112.5 -59.5t-78.5 -134t-26 -132.5z" />
    <glyph glyph-name="one" unicode="1" horiz-adv-x="346" 
d="M79 -17q0 14 10.5 51t27 88t18.5 57q42 143 50 241q-106 -86 -139 -86q-16 0 -16 19q0 9 6 17t12 12.5t18 11.5t16 10q82 59 132 130q19 27 56 27q46 0 46 -26q0 -10 -13 -32q-23 -41 -48 -135q-14 -52 -32.5 -141.5t-30.5 -152.5l-11 -63q-5 -26 -31 -37t-57 -11
q-14 0 -14 20z" />
    <glyph glyph-name="two" unicode="2" horiz-adv-x="498" 
d="M144 66q23 10 51 10q31 0 91 -14t90 -14q35 0 55 11q4 2 13 13.5t14 11.5q8 0 13.5 -6t5.5 -13q0 -32 -37.5 -55t-71.5 -23q-28 0 -81.5 11t-81.5 11q-27 0 -77.5 -11.5t-73.5 -11.5q-26 0 -26 20q0 10 49 57t107 103.5t107 135t49 144.5q0 37 -26.5 66t-63.5 29
q-45 0 -87 -31t-52 -74q0 -2 -1 -7.5t-1.5 -8t-2.5 -7t-4 -6.5t-5.5 -4t-8.5 -2q-21 0 -21 26q0 67 65 114.5t134 47.5t117 -43t48 -110q0 -41 -31 -95.5t-81.5 -108.5t-91.5 -92.5t-83 -73.5z" />
    <glyph glyph-name="three" unicode="3" horiz-adv-x="468" 
d="M58 -217q-15 0 -33 2t-41.5 6.5t-38.5 14.5t-15 25q0 18 22 18q9 0 16.5 -2t18.5 -7t15 -6q19 -7 49 -7q71 0 141 30t118.5 90t48.5 133q0 74 -63.5 117t-141.5 43l-59 -4q-26 0 -26 18q0 4 1 6q2 4 4 7.5t3.5 5.5t5 4.5t5 3.5t6.5 4t7 4q143 77 143 155q0 22 -13 36.5
t-34 14.5q-54 0 -99 -70q-10 -17 -24 -17q-12 0 -19.5 8t-7.5 20q0 17 15 34q25 28 70.5 46t85.5 18q47 0 85 -19t38 -61q0 -47 -37.5 -88t-87.5 -66q98 -10 164.5 -61.5t66.5 -143.5q0 -82 -65 -156.5t-154.5 -115t-169.5 -40.5z" />
    <glyph glyph-name="four" unicode="4" horiz-adv-x="546" 
d="M371 116q-32 -126 -46 -189q-8 -38 -30 -38q-25 0 -25 26q0 7 1 10q33 146 39 184q-76 -5 -184 -5q-96 0 -96 46q0 10 3 19q9 34 120.5 193t164.5 226q26 34 51 34q13 0 22 -8t9 -21q0 -5 -3 -10.5t-6 -9t-9 -10t-7 -7.5q-32 -35 -136.5 -193t-104.5 -182q0 -12 81 -12
q69 0 106 2q8 39 28.5 113t28.5 107q10 40 39 40q26 0 26 -25q0 -15 -56 -228q16 1 55.5 5.5t61.5 4.5q27 0 27 -21q0 -24 -40 -37t-80 -14h-40z" />
    <glyph glyph-name="five" unicode="5" horiz-adv-x="483" 
d="M91 333q47 -2 90.5 -7.5t94.5 -21t88 -38.5t62 -62.5t25 -90.5q0 -87 -75.5 -160t-168.5 -106q-79 -28 -160 -28h-11q-102 0 -102 46q0 10 9.5 16t20.5 6q10 0 38.5 -13t49.5 -13q69 0 134.5 26.5t113 83t47.5 131.5q0 82 -60 123.5t-145 41.5h-72q-32 0 -32 21
q0 23 31 113.5t45 110.5q7 12 56 12h185l103 9q16 0 16 -12v-2q-4 -32 -32 -43.5t-91 -16.5h-213q-10 -13 -25.5 -57t-21.5 -69z" />
    <glyph glyph-name="six" unicode="6" horiz-adv-x="517" 
d="M50 174q0 249 205 443q30 29 69 57.5t62 28.5q21 0 21 -16q0 -5 -6 -10.5t-11 -8.5l-6 -2q-46 -24 -76 -55q-72 -75 -121 -192t-49 -218q0 -37 10 -76t37.5 -71t65.5 -32q76 0 122 46t46 122q0 62 -37.5 96t-100.5 34q-28 0 -58 -12q-19 -7 -24 -7q-9 0 -9 7q0 18 35 35
t62 23q31 7 56 7q64 0 109 -46t45 -110q0 -55 -42 -113.5t-103.5 -95.5t-116.5 -37q-78 0 -131.5 62t-53.5 141z" />
    <glyph glyph-name="seven" unicode="7" horiz-adv-x="460" 
d="M100 -239q-12 0 -22 6t-10 18q0 101 210 505q6 11 15 29q3 6 15.5 28.5t19.5 36.5t16.5 34t14 35.5t4.5 25.5q0 11 -14 11l-276 -18q-37 0 -37 26q0 15 10 24t25 9h79q130 0 234 8l18 1q59 0 59 -35q0 -34 -33 -91q-125 -214 -206 -416q-24 -60 -66 -182q-19 -55 -56 -55
z" />
    <glyph glyph-name="eight" unicode="8" horiz-adv-x="509" 
d="M486 501q-17 0 -26 37v2q-12 49 -43.5 63t-89.5 14q-29 0 -61 -7.5t-60 -28t-28 -50.5q0 -44 97 -159l111 69q6 3 16 9.5t18.5 11.5t16.5 9q12 7 22 7q17 0 17 -13q0 -5 -4 -11t-8 -10l-4 -3q-6 -7 -13.5 -13t-18 -12.5t-15.5 -10.5q-70 -52 -106 -77q90 -119 90 -185
q0 -77 -62.5 -126t-142.5 -49q-65 0 -106 35.5t-41 99.5q0 35 14 67.5t42 62t49 48t57 45.5q-114 128 -114 194q0 37 25.5 63.5t65 39.5t76.5 19t71 6q38 0 78 -9t75 -35.5t35 -65.5q0 -13 -10 -25t-23 -12zM248 282q-5 -4 -32 -27.5t-38 -34.5t-29 -32.5t-25.5 -42
t-7.5 -42.5q0 -40 25.5 -69t64.5 -29q50 0 82.5 39.5t32.5 90.5q0 35 -22 76t-51 71z" />
    <glyph glyph-name="nine" unicode="9" horiz-adv-x="512" 
d="M477 327q0 -249 -205 -443q-30 -29 -69 -57.5t-62 -28.5q-21 0 -21 16q0 11 23 21q62 27 119.5 106t92 177t34.5 182q0 37 -10 76t-37.5 71t-65.5 32q-76 0 -122 -46t-46 -122q0 -62 37.5 -96t100.5 -34q28 0 58 12q19 7 24 7q9 0 9 -7q0 -18 -35 -34.5t-62 -22.5
q-36 -8 -56 -8q-64 0 -109 46t-45 110q0 55 42 113.5t103.5 95.5t116.5 37q78 0 131.5 -62t53.5 -141z" />
    <glyph glyph-name="colon" unicode=":" horiz-adv-x="293" 
d="M141 0q-18 0 -29.5 11t-11.5 29q0 20 8.5 35.5t26.5 15.5q16 0 29.5 -12t13.5 -28q0 -51 -37 -51zM181 260q-18 0 -29.5 11t-11.5 29q0 20 8.5 35.5t26.5 15.5q16 0 29.5 -12t13.5 -28q0 -51 -37 -51z" />
    <glyph glyph-name="semicolon" unicode=";" horiz-adv-x="317" 
d="M205 260q-18 0 -29.5 11t-11.5 29q0 20 8.5 35.5t26.5 15.5q16 0 29.5 -12t13.5 -28q0 -51 -37 -51zM100 -103q0 4 9 17t18.5 36.5t9.5 50.5q0 7 -2.5 21.5t-2.5 20.5q0 17 12 30t29 13q34 0 34 -32q0 -14 -2 -26q-4 -31 -37.5 -85.5t-58.5 -54.5q-9 0 -9 9z" />
    <glyph glyph-name="less" unicode="&#x3c;" horiz-adv-x="469" 
d="M60 152v25l349 143v-38l-291 -118l291 -117v-38z" />
    <glyph glyph-name="equal" unicode="=" horiz-adv-x="475" 
d="M60 192v33h355v-33h-355zM60 87v34h355v-34h-355z" />
    <glyph glyph-name="greater" unicode="&#x3e;" horiz-adv-x="469" 
d="M60 10v37l292 118l-292 118v39l349 -144v-25z" />
    <glyph glyph-name="question" unicode="?" horiz-adv-x="502" 
d="M198 51q0 -51 -37 -51q-18 0 -29.5 11t-11.5 29q0 20 8.5 35.5t26.5 15.5q16 0 29.5 -12t13.5 -28zM171 166q-20 0 -20 40q0 45 23.5 87.5t56.5 78t66 72.5t56.5 85.5t23.5 101.5q0 35 -25 62t-59 27q-37 0 -67 -27.5t-30 -64.5q0 -26 14 -53.5t14 -28.5q0 -8 -6.5 -13
t-14.5 -5q-23 0 -38 36t-15 63q0 60 49.5 102.5t110.5 42.5q72 0 117 -34.5t45 -104.5q0 -46 -20 -90.5t-49.5 -78t-65 -69t-66.5 -64.5t-54 -64t-26 -67q0 -2 -0.5 -10.5t-1.5 -12t-5.5 -7.5t-12.5 -4z" />
    <glyph glyph-name="at" unicode="@" horiz-adv-x="573" 
d="M204 186q0 -62 45 -62q43 0 73.5 44.5t30.5 89.5q0 30 -15.5 43.5t-35.5 13.5q-34 0 -66 -38t-32 -91zM425 342l-54 -171q-6 -24 -6 -33q0 -14 13 -14q36 0 65.5 41t29.5 94q0 72 -54.5 116.5t-129.5 44.5q-80 0 -134 -57t-54 -140t53.5 -137.5t134.5 -54.5q109 0 168 71
h37q-29 -51 -83.5 -80t-121.5 -29q-108 0 -168.5 68t-60.5 161q0 95 61 165.5t168 70.5q89 0 156.5 -54t67.5 -145q0 -74 -47.5 -123.5t-94.5 -49.5q-43 0 -51 39h-1q-33 -39 -78 -39q-38 0 -62.5 27.5t-24.5 67.5q0 66 42 120t106 54q47 0 70 -50l13 37h40z" />
    <glyph glyph-name="A" unicode="A" 
d="M393 305q-7 64 -12 131q-3 64 -6 75q0 6 -4 6q-3 0 -10 -17t-15 -39.5t-9 -24.5q-38 -98 -60 -146q5 1 116 15zM575 -16q-133 0 -175 282q-13 -2 -64 -10.5t-79 -11.5q-6 -12 -25.5 -55.5t-30.5 -65.5t-33 -62t-41.5 -62.5t-45.5 -47t-56.5 -36t-63.5 -11.5
q-23 0 -47 6.5t-24 23.5t22 17l53 -9q37 0 79 40.5t76.5 97.5t74 140t64.5 144.5t54 136t36 91.5q23 57 23 110q0 20 33.5 36t56.5 16q11 0 17 -9.5t6 -21.5q0 -2 -1 -11.5t-2.5 -27t-2.5 -41.5t-2 -63.5t-1 -84.5q0 -106 7 -174q11 1 30.5 4.5t35.5 5.5t30 2q19 0 19 -14
q0 -18 -25 -26q-11 -4 -25.5 -6.5t-33.5 -4.5t-27 -3q3 -35 12 -82.5t31.5 -99.5t49.5 -52q29 0 67.5 30t62.5 60l23 30q6 17 23 17q6 0 11.5 -4t5.5 -10q0 -9 -8 -25q-31 -56 -85.5 -107.5t-104.5 -51.5z" />
    <glyph glyph-name="B" unicode="B" horiz-adv-x="529" 
d="M246 371q34 -8 67.5 -19.5t74 -31t65.5 -47.5t25 -61q0 -47 -42 -89.5t-102 -68.5t-121 -41t-105 -15q-11 -26 -21.5 -32.5t-38.5 -6.5q-33 0 -33 16q0 12 1 26.5t2.5 31.5t2.5 28q5 61 12 123q26 229 69 425q-60 -4 -89 -8q-3 0 -14 -2t-17 -2q-15 0 -15 13q0 9 9.5 15
t19.5 8l10 2q64 10 105 12q7 35 18 69q11 35 47 50q19 8 37 8q17 0 17 -8q0 -3 -2 -7q-6 -14 -26 -109q35 0 71 -2.5t88 -11t85 -29t33 -50.5q0 -53 -84 -111.5t-149 -74.5zM146 348q-1 -9 -9.5 -59.5t-11 -70.5t-6 -57t-3.5 -67q0 -26 1 -39q30 3 76.5 13.5t99 28t89 45
t36.5 57.5q0 34 -30.5 62t-79.5 45t-86.5 26.5t-75.5 15.5zM420 545q0 20 -28.5 34.5t-71 20.5t-73.5 8.5t-54 2.5q-9 -44 -38 -217q33 8 69.5 19.5t85 31t79.5 46t31 54.5z" />
    <glyph glyph-name="C" unicode="C" horiz-adv-x="605" 
d="M185 291q0 -267 190 -267q65 0 123 28.5t99 79.5q7 9 31 47q15 23 27 23q7 0 11.5 -5t4.5 -12q0 -11 -13 -32q-46 -81 -132 -133.5t-178 -52.5q-87 0 -151 47.5t-94 119.5t-30 157q0 71 22 148t62 145.5t105 113t141 44.5q60 0 98.5 -40t38.5 -101q0 -40 -10 -95t-29 -69
q-10 -7 -24 -7q-25 0 -25 18q0 9 10.5 36t11.5 30q13 44 13 86q0 36 -20.5 61t-55.5 25q-51 0 -96 -45t-72 -109.5t-42.5 -129.5t-15.5 -111z" />
    <glyph glyph-name="D" unicode="D" horiz-adv-x="612" 
d="M135 -2q0 -2 -0.5 -5t-4 -10t-9.5 -13t-18 -10.5t-28 -4.5q-34 0 -34 16q0 90 24 266q29 219 71 409q-8 -1 -40 -6t-46 -5q-16 0 -16 13t27 20.5t55 9.5l27 1q21 95 96 95q16 0 16 -15q0 -2 -2 -8q-7 -15 -19 -69q159 0 253.5 -78.5t94.5 -234.5q0 -79 -51.5 -151.5
t-124 -118.5t-146.5 -73.5t-125 -27.5zM139 59q29 0 68 10t82.5 28t85 46.5t75.5 62t54.5 78t20.5 91.5q0 123 -86.5 197t-211.5 76q-37 -186 -66 -377q-22 -154 -22 -212z" />
    <glyph glyph-name="E" unicode="E" horiz-adv-x="515" 
d="M399 746q51 0 80.5 -28.5t29.5 -78.5q0 -34 -20 -34q-9 0 -15.5 14t-11.5 31t-22 31t-44 14q-41 0 -80 -37t-66.5 -95t-45 -106.5t-28.5 -92.5q29 9 111 14t134 5q41 0 41 -5q0 -14 -9.5 -24t-23.5 -13h-2q-39 0 -251 -54q-8 -2 -11 -3q-3 -18 -3 -35q0 -55 11 -104
t46.5 -89.5t91.5 -40.5q54 0 104 30t86 77q7 9 18 26t16 24q9 11 18 11q17 0 17 -18q0 -15 -21 -44q-50 -72 -128 -120t-160 -48q-54 0 -95 25.5t-62.5 67.5t-32 89t-10.5 98q0 7 0.5 15.5t0.5 11.5h-9q-62 0 -62 34q0 9 4.5 16t9.5 11.5t16 8.5t16.5 5t18 4t14.5 3
q11 47 29.5 99t49 107t66.5 98.5t84.5 71.5t99.5 28z" />
    <glyph glyph-name="F" unicode="F" horiz-adv-x="576" 
d="M493 631q0 -28 -9 -111q-9 -76 -26 -172q7 1 23 5.5t28 6.5t23 2q17 0 17 -14q0 -19 -100 -43q-8 -48 -20 -92.5t-34.5 -96t-50.5 -89.5t-71 -63t-93 -25q-57 0 -93 45q-18 24 -18 40q5 11 16 11q10 0 21.5 -14t29 -28.5t41.5 -14.5q40 0 73.5 34.5t54.5 88t33.5 100
t17.5 86.5q-9 -2 -34.5 -6.5t-43 -7t-34.5 -2.5t-17 17q0 22 18 28q7 2 21.5 2.5t15.5 0.5q38 3 82 11q32 169 32 272l-1 18q-23 -3 -90 -9t-103 -13q-5 -1 -13 -2t-28 -6t-35.5 -11t-28 -17.5t-12.5 -24.5q0 -32 23 -71t23 -40q0 -9 -16 -12q-9 0 -17 6q-27 20 -46 59
t-19 73q0 23 14 41.5t31.5 28.5t47.5 18.5t45.5 11.5t43.5 7q15 2 153 17t208 32q7 2 23.5 7.5t30.5 10t21 4.5q13 0 13 -24q0 -27 -22 -39q-29 -16 -149 -36z" />
    <glyph glyph-name="G" unicode="G" horiz-adv-x="575" 
d="M78 140q0 -71 36 -71q16 0 41 17q76 49 159.5 174.5t109.5 219.5q1 4 3.5 14.5t4 14.5t4.5 11.5t6 10.5t8.5 6.5t13 5t17.5 1.5q26 0 26 -34q0 -62 -14 -186q-6 -52 -14 -99t-23 -119.5t-37.5 -130t-53 -111.5t-74 -84.5t-94.5 -30.5q-66 0 -106 38q-25 23 -25 39
q0 6 4.5 12t10.5 6q8 0 23.5 -14t39 -28t52.5 -14q46 0 83 42t58 100t35.5 134.5t20 128t7.5 98.5q-23 -43 -53.5 -87.5t-71 -92t-88.5 -77.5t-92 -30q-39 0 -63.5 27.5t-32 60.5t-7.5 71q0 60 21 131t60 138.5t89 123.5t114 90.5t129 34.5q41 0 84.5 -18.5t43.5 -53.5
q0 -31 -16 -31q-3 0 -24 11.5t-49 11.5q-21 0 -31 -1q-49 -5 -85 -25q-96 -52 -173 -188t-77 -247z" />
    <glyph glyph-name="H" unicode="H" horiz-adv-x="710" 
d="M195 212q-54 -29 -107.5 -95t-53.5 -119q0 -8 6.5 -14t14.5 -6q17 0 34 17q22 22 62 104t44 113zM751 312q-17 0 -51 10.5t-53 10.5q-13 0 -75 -5q-23 -47 -36.5 -114.5t-13.5 -123.5q0 -23 12 -51l11 -28q0 -7 -7.5 -13t-14.5 -6q-29 0 -42 39t-13 85q0 94 37 202
q-119 -23 -222 -70q-3 -14 -9.5 -37t-28 -81.5t-45.5 -103.5t-60.5 -81.5t-74.5 -36.5q-42 0 -64 25t-22 67q0 28 8 54.5t25 50.5t32.5 43t41.5 40.5t41 33t42 30.5t34 24q6 4 24.5 134.5t18.5 155.5t-4 51t-19.5 51t-39.5 25q-6 0 -16.5 -3.5t-16.5 -3.5t-13.5 6t-7.5 12
q0 15 39 27.5t60 12.5q41 0 66.5 -28t33.5 -62t8 -74q0 -114 -41 -271q143 46 226 55q54 139 183 347q52 76 78 76q13 0 13 -11q0 -12 -8 -24t-21 -26.5t-17 -20.5q-101 -145 -164 -333q33 2 98 2q20 0 32.5 -1t28.5 -4t24.5 -11t8.5 -20q0 -11 -7.5 -18.5t-18.5 -7.5z" />
    <glyph glyph-name="I" unicode="I" horiz-adv-x="456" 
d="M421 588q0 -60 -10.5 -136.5t-35.5 -164t-61.5 -159.5t-94.5 -119.5t-128 -47.5q-28 0 -59.5 14.5t-31.5 39.5q0 6 5.5 10t11.5 4q7 0 27.5 -15t46.5 -15q56 0 104 76.5t75 182.5t42 201t15 148q0 81 -43 81q-38 0 -88 -48.5t-72 -91.5q-32 -62 -32 -134q0 -22 9.5 -43.5
t9.5 -30.5q0 -22 -20 -22q-40 0 -40 91q0 66 37 147q30 67 100 132.5t133 65.5q33 0 54.5 -15t30.5 -42.5t12 -51.5t3 -57z" />
    <glyph glyph-name="J" unicode="J" horiz-adv-x="467" 
d="M363 270h1q10 5 26 5q15 0 15 -11q0 -30 -62 -60q-81 -372 -206 -487q-37 -35 -72 -35q-22 0 -36 10.5t-20 30t-7.5 35.5t-1.5 38v14q1 99 88 229.5t179 201.5q56 220 56 337q0 110 -47 110q-40 0 -87.5 -47t-70.5 -92q-35 -67 -35 -139q0 -19 9 -40t9 -30q0 -22 -20 -22
q-43 0 -43 91q0 66 37 147q31 68 102.5 133t136.5 65q26 0 45 -15.5t28 -35.5t14 -52t5.5 -51t0.5 -47q0 -131 -44 -283zM251 173q-67 -58 -135.5 -176.5t-68.5 -196.5q0 -46 18 -46q27 0 71 96.5t72.5 183.5t42.5 139z" />
    <glyph glyph-name="K" unicode="K" horiz-adv-x="465" 
d="M147 714q24 0 37 -6.5t13 -28.5q0 -12 -6 -35t-15.5 -50.5t-11.5 -36.5q-40 -149 -53 -281l293 377q12 15 29 15q24 0 24 -17q0 -25 -84 -138.5t-130 -167.5q-65 -83 -96 -125q92 -70 222 -110q18 -6 28 -7l17 -1q16 -1 25.5 -4.5t9.5 -11.5q0 -22 -14.5 -36.5
t-37.5 -14.5q-37 0 -150.5 49t-150.5 77q-16 -58 -16 -174v-11q0 -34 -31 -48q-12 -5 -23 -5q-26 0 -26 36q0 310 81 645q23 95 44 106q7 4 22 4z" />
    <glyph glyph-name="L" unicode="L" horiz-adv-x="572" 
d="M68 -34q-14 0 -28.5 18.5t-14.5 33.5q0 18 10.5 26t29.5 12.5t26 8.5q29 18 46 106t25.5 188t36.5 206.5t76 155.5q43 43 85 43q51 0 78 -52t27 -108q0 -23 -20 -23q-12 0 -18 20.5t-8.5 45t-15 45t-36.5 20.5q-34 0 -62.5 -87.5t-43.5 -195t-32 -217.5t-29 -139
q40 0 115 -25t115 -25q36 0 68 21.5t50 47t35 47t26 21.5q6 0 11.5 -4t5.5 -10q0 -9 -8 -25q-31 -58 -78.5 -100.5t-102.5 -42.5q-39 0 -114 14.5t-114 14.5q-49 0 -127 -37q-8 -4 -14 -4z" />
    <glyph glyph-name="M" unicode="M" horiz-adv-x="833" 
d="M628 301q0 2 -1 3q-5 -2 -35.5 -63t-68 -132t-85.5 -130.5t-83 -59.5q-37 0 -54 44q-36 89 -36 330q0 9 -2 9l-5 -10q-14 -45 -21.5 -68.5t-25 -71t-31.5 -75.5t-37.5 -65.5t-47 -58.5t-54.5 -36t-65 -15q-46 0 -46 26q0 8 5.5 14t13.5 6l43 -5q56 0 109.5 76.5t87.5 180
t54.5 201t20.5 148.5q0 49 -11 82q-1 2 -1 6q0 16 28.5 31.5t46.5 15.5q16 0 28 -6q22 -11 22 -91q0 -38 -3 -462q0 -105 17 -105q10 0 39 42q29 46 79 142q59 113 105 215q4 9 15 31.5t17.5 39.5t10.5 33q0 2 2.5 15t4.5 18.5t5.5 15.5t8.5 15.5t12 8.5q12 5 24 5
q23 0 23 -42q0 -30 -10 -90q-24 -153 -24 -270q0 -39 10 -81t36 -42q19 0 38.5 15t31 31t28.5 43t22 34q11 17 23 17q6 0 11 -4t5 -10q0 -9 -8 -25q-24 -51 -74.5 -105t-93.5 -54q-104 0 -104 283z" />
    <glyph glyph-name="N" unicode="N" horiz-adv-x="752" 
d="M14 -98q-70 0 -70 26q0 20 23 20l45 -3q171 0 221 516q3 28 3 77q0 9 -4 24.5t-4 23.5q0 19 26.5 36.5t46.5 17.5q25 0 32 -41l3 -24q7 -42 20 -89q11 -41 29.5 -99t48 -138.5t63 -135t59.5 -54.5q16 0 31 45q14 43 26.5 123.5t18.5 138.5l5 59q7 114 7 186q0 32 29 32
q19 0 19 -34q0 -52 -6.5 -141.5t-20.5 -206.5t-44 -199t-71 -82q-45 0 -90 43t-77 104t-58 122.5t-39 104.5l-13 43q-1 -10 -3 -28t-10.5 -69.5t-20 -98t-32.5 -104t-46.5 -98.5t-64 -69t-82.5 -28z" />
    <glyph glyph-name="O" unicode="O" horiz-adv-x="613" 
d="M218 -40q-56 0 -96.5 25.5t-62 68t-31.5 89.5t-10 99q0 58 12 123.5t37 130.5t59 117.5t83 85t104 32.5q11 0 32 -5t32 -5l45 3q38 0 67 -33.5t44 -82.5t22.5 -94.5t7.5 -80.5q0 -73 -23.5 -154t-65.5 -153t-109.5 -119t-146.5 -47zM373 665q-69 0 -131.5 -76.5
t-97 -179.5t-34.5 -190q0 -193 139 -193q59 0 110.5 41t83 101.5t49.5 126t18 119.5q0 35 -6.5 74.5t-21 81t-43 68.5t-66.5 27z" />
    <glyph glyph-name="P" unicode="P" horiz-adv-x="452" 
d="M452 454q0 -59 -35 -113t-89.5 -91t-114 -62t-115.5 -34q-7 -21 -12.5 -66t-5.5 -72q0 -5 0.5 -19t0 -19t-3 -14t-9.5 -14.5t-18 -11.5q-12 -5 -23 -5q-26 0 -26 36q0 252 67 549q0 2 6 23.5t18 48t23 32.5q10 6 27 6q42 0 42 -35q0 -12 -5 -31.5t-13 -46t-10 -32.5
q-41 -152 -54 -294q47 11 92.5 29.5t91 47t73.5 70t28 90.5q0 87 -79.5 150.5t-170.5 72.5q-2 0 -13.5 1t-20 2t-19 3.5t-16 8t-5.5 12.5q0 6 4 16q8 18 16 22.5t29 4.5q73 0 150.5 -32t133.5 -95t56 -138z" />
    <glyph glyph-name="Q" unicode="Q" horiz-adv-x="613" 
d="M177 430q0 -49 27 -94t60 -73t79.5 -67t69.5 -66q31 21 63 100q34 86 34 184q0 35 -6.5 74.5t-21 81t-43 68.5t-66.5 27q-54 0 -101 -42.5t-71 -96.5t-24 -96zM368 87q-6 8 -16.5 17t-16.5 14t-22 16t-18 12q-46 32 -73.5 54.5t-57.5 62.5t-37 82q-21 -60 -21 -126
q0 -70 33 -129t98 -59q34 0 73 16t58 40zM466 -90q-14 0 -17.5 11.5t-3.5 37.5q0 29 -9 49t-31 46q-39 -40 -90.5 -66t-102.5 -26q-45 0 -80.5 20.5t-57 52t-35.5 73.5t-19.5 81.5t-5.5 80.5q0 99 39.5 200t105.5 175q77 87 154 87q8 -1 29 -5.5t35 -4.5q8 0 23 1.5t22 1.5
q44 0 83 -58q59 -88 59 -234q0 -126 -50 -238q-8 -17 -24.5 -43t-29.5 -44l-13 -18q43 -54 43 -121q0 -59 -24 -59z" />
    <glyph glyph-name="R" unicode="R" horiz-adv-x="451" 
d="M451 482q0 -53 -32 -105.5t-81 -91t-104.5 -65.5t-106.5 -36q90 -67 237 -111q18 -6 27 -7q2 0 12.5 -1t18.5 -2t15 -4.5t7 -9.5q0 -22 -14.5 -36.5t-37.5 -14.5q-37 0 -150.5 49t-150.5 77q-12 -36 -12 -108l1 -30q0 -33 -31 -48q-12 -5 -23 -5q-26 0 -26 36
q0 281 67 549q22 91 48 105q10 5 26 5q42 0 42 -35q0 -11 -7 -34.5t-16 -50.5t-12 -37q-35 -127 -47 -254q47 11 92.5 29.5t91 47t73.5 70t28 90.5q0 43 -24.5 79.5t-62.5 60t-80.5 37.5t-82.5 18q-2 0 -13.5 1t-20 2t-19 3.5t-16 8t-5.5 12.5q0 6 4 16q8 18 16 22.5t29 4.5
q11 0 33 -2q53 -6 103 -22t98 -42.5t77 -71t29 -99.5z" />
    <glyph glyph-name="S" unicode="S" horiz-adv-x="557" 
d="M425 567q0 17 33 47.5t33 45.5q0 20 -49 20q-40 0 -68 -5q-58 -10 -113.5 -48.5t-55.5 -89.5q0 -29 20.5 -60t51.5 -57.5t67.5 -58.5t67.5 -61t51.5 -66t20.5 -74q0 -44 -26.5 -78t-65.5 -53t-90 -31.5t-93 -16.5t-81 -4q-26 0 -53 3l-13 1q-14 1 -21.5 2.5t-18.5 4.5
t-16.5 8.5t-5.5 12.5q0 10 5 15t10 6t17 1q16 0 48.5 -6.5t49.5 -6.5q33 0 75.5 5.5t91.5 17.5t82 37.5t33 60.5q0 30 -31 65t-75 68.5t-88.5 70.5t-75.5 84.5t-31 97.5q0 56 37 95.5t96.5 58t113 26.5t106.5 8q24 0 45.5 -3.5t42 -17.5t20.5 -37q0 -39 -30 -67
q-16 -16 -44 -31t-47 -15q-11 0 -18.5 7t-7.5 18z" />
    <glyph glyph-name="T" unicode="T" horiz-adv-x="567" 
d="M455 631q2 -19 2 -56q0 -61 -5 -130.5t-22 -163.5t-44 -166.5t-77.5 -124t-115.5 -51.5q-57 0 -96 45q-20 22 -21 40q6 11 15 11q10 0 22.5 -14t31 -28.5t42.5 -14.5q53 0 90.5 69.5t54 173t23 182t6.5 136.5q0 54 -4 81q-29 -4 -93 -10.5t-98 -11.5q-113 -18 -113 -51
q0 -28 13.5 -55t27.5 -44.5t14 -22.5q0 -11 -13 -11q-11 0 -20 6q-30 20 -52.5 58.5t-22.5 73.5q0 20 8 36t24.5 26.5t31.5 18t39.5 13t36.5 8t35 5.5q15 2 151.5 16.5t205.5 32.5l22.5 7.5l30 10t20.5 4.5q15 0 15 -31q0 -20 -19 -32q-17 -10 -75.5 -21t-70.5 -15z" />
    <glyph glyph-name="U" unicode="U" horiz-adv-x="595" 
d="M581 608q0 -8 -8.5 -37t-18.5 -63t-13 -44q-51 -221 -62 -427q0 -13 0.5 -30t0.5 -23q0 -38 -26 -38q-30 0 -30 136q0 131 14 244q-25 -49 -53 -94t-69.5 -100.5t-89.5 -89t-94 -33.5q-24 0 -43 9.5t-30 28t-18 38t-10 46t-4 44t-1 41.5q0 76 14 183t26 143q26 89 56 102
q8 4 26 4q38 0 38 -27q0 -7 -4 -19q-60 -199 -60 -411q0 -104 45 -104q35 0 82.5 49.5t94.5 129t75 132t53 104.5l10 20t13 27.5t7 20.5q5 21 8.5 31.5t15 21t30.5 10.5q25 0 25 -25z" />
    <glyph glyph-name="V" unicode="V" horiz-adv-x="601" 
d="M0 600q0 16 17.5 36.5t32.5 20.5q12 0 42 -30q21 -22 53 -74q103 -171 155 -410q8 28 49 102q42 77 106 188q104 180 125 211q25 40 40 40q11 0 21 -8.5t10 -19.5q0 -5 -10 -18q-13 -17 -27 -38.5t-23.5 -37.5t-24 -42t-22.5 -39q-80 -137 -165 -298q-4 -7 -17.5 -31.5
t-21.5 -39t-17 -35.5t-13 -35q-2 -7 -4 -19.5t-4 -18t-6.5 -12.5t-13 -9.5t-22.5 -2.5q-11 0 -18 7t-9 12.5t-4 21t-2 17.5q-24 146 -76.5 294t-128.5 237q-22 26 -22 31z" />
    <glyph glyph-name="W" unicode="W" horiz-adv-x="854" 
d="M72 325q0 165 -50 318q-8 19 -8 30q0 26 38 26q41 0 57 -47q3 -8 5.5 -16.5t5 -18.5t4.5 -16q38 -144 38 -265q0 -37 -5 -84q22 52 104 175q26 40 80 120q2 3 9.5 13.5t12 17t12.5 17t14.5 17t14 13t15 10t14.5 3.5q21 0 36.5 -10t15.5 -29q0 -5 -8 -53q-10 -56 -10 -117
q0 -34 4.5 -85.5t15 -120t34.5 -115.5t57 -47q52 0 100 109.5t71.5 224.5t23.5 171q0 52 -11 107q-4 16 -4 23q0 19 23 19q13 0 22.5 -18t13 -45.5t5 -47t1.5 -34.5q0 -46 -9 -114.5t-30 -152.5t-51 -155t-78 -119t-104 -48t-95 53.5t-56 135.5t-23.5 146.5t-6.5 119.5
q0 44 4 65q-71 -70 -206 -340q-4 -8 -16 -34.5t-23 -49t-24.5 -47t-27.5 -38.5t-25 -14q-39 0 -39 29l8 24q51 102 51 294z" />
    <glyph glyph-name="X" unicode="X" horiz-adv-x="630" 
d="M393 374q8 -46 26 -117.5t52 -149.5t66 -78l23 6q17 0 17 -18q0 -25 -27.5 -36t-57.5 -11q-13 0 -19 2q-49 15 -96.5 116t-63.5 176q-8 -13 -22.5 -34t-54.5 -75.5t-74.5 -96.5t-73 -76t-60.5 -34q-16 0 -29 11.5t-13 27.5q0 35 63 35q9 0 25 14t37.5 40t42 52.5t45 62
t40.5 58.5t35 51.5l21 31.5q-16 80 -22 109q-7 31 -12.5 48.5t-17.5 47.5t-31 45.5t-43 15.5q-34 0 -62.5 -11.5t-42.5 -25.5t-27 -25.5t-21 -11.5q-9 0 -14 6.5t-5 15.5q0 19 33 54q77 84 168 84q35 0 63.5 -17.5t45.5 -40t32 -61.5t21 -63t14 -63q33 46 67 90t89 95t88 51
q15 0 15 -17q0 -15 -13 -28q-9 -9 -30 -24.5t-30 -24.5q-73 -69 -167 -207z" />
    <glyph glyph-name="Y" unicode="Y" horiz-adv-x="588" 
d="M432 367q-17 -40 -36.5 -79t-51 -91.5t-63.5 -91t-73 -65.5t-80 -27q-116 0 -116 230q0 71 1 111t8.5 102t21.5 113q24 88 52 101q9 5 30 5q34 0 34 -29q0 -3 -0.5 -5.5t-1.5 -6t-1 -5.5q-48 -182 -48 -406q0 -132 51 -132q36 0 82 52.5t90.5 135.5t71 139t47.5 107
q1 3 9.5 21t13 30.5t5.5 20.5q0 3 0.5 7t3.5 15t7 19.5t11.5 15.5t17.5 7h17q25 0 25 -29v-5q-6 -73 -15 -140q-6 -49 -13.5 -98t-23 -127t-34 -144t-47 -138t-61.5 -122.5t-78 -83t-96 -32.5q-57 0 -102 40q-27 24 -27 42q0 15 16 15q7 0 23 -13.5t40.5 -27t51.5 -13.5
q56 0 93 49q61 79 99.5 239.5t45.5 293.5z" />
    <glyph glyph-name="Z" unicode="Z" horiz-adv-x="548" 
d="M451 -15q-17 0 -34 3q-23 3 -46 3h-79q-122 0 -197 -14l-6 -1q-15 0 -28 13t-13 28q0 21 29 44l2 1q10 8 69 84q26 33 65 84t97 128.5t97.5 134.5t39.5 67t-61 10h-107q-63 0 -107 -9.5t-76 -43.5q-12 -12 -25 -12q-27 0 -27 19q0 21 22.5 62.5t40.5 50.5q5 3 11 3
q2 0 8 -2h401q21 0 21 -18t-33 -62q-12 -17 -34 -50.5t-25 -38.5q-91 -134 -159 -220q-73 -92 -165 -202l177 6q4 0 27.5 0.5t29.5 1t25 2t27.5 5t23 8.5t25.5 13.5t21 19.5q12 12 26 12q10 0 18 -5t8 -14q0 -20 -22.5 -59t-40.5 -47q-11 -5 -26 -5z" />
    <glyph glyph-name="asciicircum" unicode="^" horiz-adv-x="527" 
d="M417 593l-153 151l-153 -151h-51l177 188h54l176 -188h-50z" />
    <glyph glyph-name="underscore" unicode="_" horiz-adv-x="456" 
d="M-18 -102v35h492v-35h-492z" />
    <glyph glyph-name="grave" unicode="`" horiz-adv-x="276" 
d="M202 432q-6 0 -14.5 6.5t-20 19t-20 23t-21.5 27t-17 21.5q-3 4 -14.5 17t-17.5 20.5t-11.5 18t-5.5 18.5q0 13 9 22.5t23 9.5q7 0 13 -2t11 -6.5t9 -8.5t9 -11.5t7 -12t7 -13t6 -11.5q4 -6 14 -23.5t17 -29.5t15 -27t12 -26t4 -17q0 -15 -14 -15z" />
    <glyph glyph-name="a" unicode="a" horiz-adv-x="421" 
d="M476 162q0 -10 -22 -41q-102 -143 -180 -143q-23 0 -39 17t-23 44t-9.5 49t-2.5 45q-84 -132 -140 -132q-23 0 -37 19t-18.5 40.5t-4.5 44.5q0 86 72 187t154 101q11 0 22 -10.5t11 -20.5q0 -6 -10 -12q-61 -35 -98 -74q-85 -87 -85 -196q0 -24 13 -24q47 0 148 218
q14 30 34 30q23 0 23 -16q0 -4 -18 -58q-15 -46 -15 -111q0 -98 32 -98q48 0 149 135q14 25 28 25q16 0 16 -19z" />
    <glyph glyph-name="b" unicode="b" horiz-adv-x="411" 
d="M309 320q22 -32 22 -75q0 -57 -24.5 -113.5t-66.5 -97.5q-57 -57 -114 -57q-33 0 -55.5 20t-32.5 53t-14 62t-4 60q0 145 33.5 292.5t97.5 325.5q9 25 19.5 36.5t35.5 22.5q22 10 35 10q21 0 21 -24t-29 -99q-82 -207 -108 -373q-2 -12 -7.5 -46t-8.5 -51.5t-5.5 -45
t-2.5 -49.5q0 -152 51 -152q20 0 43 23q30 28 53.5 81.5t23.5 93.5q0 88 -101 88q-9 0 -16 9.5t-7 18.5q0 14 11.5 21t26.5 7q45 1 78.5 4t65 6.5l40.5 4.5q8 0 14.5 -6.5t6.5 -14.5q0 -26 -82 -35z" />
    <glyph glyph-name="c" unicode="c" horiz-adv-x="369" 
d="M150 -22q-64 0 -96.5 51.5t-32.5 118.5q0 55 20.5 111.5t65 99t101.5 42.5q81 0 81 -76q0 -32 -11 -58.5t-38 -26.5q-11 0 -11 10q0 6 9 29t9 39q0 39 -24 39q-35 0 -63.5 -44t-41.5 -93t-13 -83q0 -44 19 -74t61 -30q62 0 114.5 40t88.5 101q16 26 30 26q16 0 16 -16
q0 -7 -8 -21q-45 -80 -118.5 -132.5t-157.5 -52.5z" />
    <glyph glyph-name="d" unicode="d" horiz-adv-x="506" 
d="M255 135q-41 -45 -92.5 -85.5t-89.5 -40.5q-29 0 -44.5 31t-15.5 63q0 86 56 167t130 81q31 0 51 -23q0 77 23.5 185.5t69.5 198.5t98 90q22 0 35.5 -21t17 -42.5t3.5 -44.5q0 -94 -52.5 -238.5t-115.5 -265.5q0 -155 43 -155q31 0 63.5 26.5t53.5 58.5t40.5 58.5
t27.5 26.5q17 0 17 -16q0 -14 -20 -44q-31 -45 -53.5 -74t-63.5 -58.5t-81 -29.5q-75 0 -101 152zM323 283v-10q51 108 91 229.5t40 204.5q0 28 -10 28q-38 0 -79.5 -181.5t-41.5 -270.5zM247 284q-64 0 -121 -72.5t-57 -138.5q0 -20 10 -20q29 0 91.5 57t78.5 88
q-2 29 -2 86z" />
    <glyph glyph-name="e" unicode="e" horiz-adv-x="321" 
d="M120 -13q-56 0 -83.5 39t-27.5 97q0 48 22 112t65.5 116.5t93.5 52.5q26 0 41 -16.5t15 -43.5q0 -48 -53.5 -113t-101.5 -82q-5 -23 -5 -42q0 -73 65 -73q58 0 107 40t84 99q16 26 30 26t14 -11q0 -14 -9 -30q-42 -73 -110.5 -122t-146.5 -49zM185 357q-26 0 -55 -65
t-36 -105q37 23 72.5 66.5t35.5 80.5q0 23 -17 23z" />
    <glyph glyph-name="f" unicode="f" horiz-adv-x="349" 
d="M232 228l-31 1q34 -30 48.5 -90t14.5 -119q0 -41 -8 -86t-25.5 -90.5t-51.5 -75t-79 -29.5q-85 0 -85 251q0 412 150 800q12 30 23 42q11 13 36 24t42 11q25 0 25 -30q0 -15 -9 -35q-36 -72 -55 -115q-93 -215 -123 -403q27 -10 98 -10q28 0 49 4q25 5 31 5q17 0 17 -12
q0 -43 -67 -43zM89 209q-27 -179 -27 -281q0 -16 1.5 -36.5t5 -49t13 -47t22.5 -18.5q26 0 45 26.5t27.5 66t12 70.5t3.5 54q0 69 -24.5 128t-78.5 87z" />
    <glyph glyph-name="g" unicode="g" horiz-adv-x="472" 
d="M311 360q-84 0 -159 -79q-33 -35 -60.5 -84t-27.5 -87q0 -39 31 -39q42 0 108.5 75t86.5 125q23 52 59 52q37 0 37 -39q0 -46 -1.5 -90.5t-7.5 -112.5t-16.5 -125t-30.5 -118t-46.5 -103.5t-67.5 -70t-92 -27.5t-74 41q-6 12 -6 19q0 9 6.5 16.5t15.5 7.5
q11 0 22.5 -21.5t31.5 -21.5q45 0 81.5 54.5t56.5 132t30.5 146.5t10.5 111q0 54 -3 81q-39 -66 -97.5 -125t-112.5 -59q-38 0 -55.5 26.5t-17.5 67.5q0 53 27 109t67 96q79 79 186 79q30 0 69.5 -15.5t39.5 -39.5q0 -10 -11 -10q-3 0 -31 14t-49 14z" />
    <glyph glyph-name="h" unicode="h" horiz-adv-x="544" 
d="M321 351q-28 0 -106 -129.5t-113 -203.5l-1 -3q-8 -16 -13.5 -25.5t-17.5 -20t-25 -10.5q-34 0 -34 60q0 10 11 103q1 11 8 76t14.5 125.5t19.5 145t28.5 153.5t36.5 131.5t47 98t57 35.5q29 0 41.5 -30t12.5 -64q0 -191 -117 -423q-9 -17 -26 -48t-24 -45
q-8 -16 -30 -164q17 37 42.5 81t61 96.5t75 87t72.5 34.5q30 0 43.5 -28t13.5 -62l-19 -251q0 -45 27 -45q22 0 45.5 14.5t47 42t36.5 45.5t33 47q15 22 24 22q15 0 15 -20q0 -1 -6 -16q-35 -69 -102 -132t-131 -63q-53 0 -53 137q0 41 16 224q0 24 -10 24zM238 836
q-40 0 -79 -188.5t-45 -283.5q52 94 94 216.5t42 208.5q0 47 -12 47z" />
    <glyph glyph-name="i" unicode="i" horiz-adv-x="263" 
d="M98 119q0 -91 35 -91q59 0 162 162q14 21 25 21q13 0 13 -22q0 -14 -27 -51q-42 -59 -94.5 -109.5t-99.5 -50.5q-28 0 -47.5 18t-28 47t-12 54.5t-3.5 51.5q0 56 21 123q21 64 72 64q23 0 23 -22q0 -16 -14 -57t-16 -49q-9 -44 -9 -89zM138 489q15 0 25 -11.5t10 -26.5
q0 -20 -14 -36.5t-34 -16.5q-15 0 -24.5 11t-9.5 27q0 20 14 36.5t33 16.5z" />
    <glyph glyph-name="j" unicode="j" horiz-adv-x="230" 
d="M75 62l1 45q0 30 -2 86q-11 -28 -40 -70t-49 -42q-13 0 -13 13q0 9 9 22q2 3 6 7.5t4 5.5q56 79 71 144q19 82 62 82q27 0 27 -56q0 -88 -3.5 -158t-16 -168t-43 -177t-76.5 -126q-53 -55 -111 -55q-42 0 -64.5 32t-22.5 76q0 64 41.5 130.5t91 111t110.5 85.5zM70 19
q-48 -39 -91 -81.5t-82.5 -105t-39.5 -112.5q0 -22 10 -40t31 -18q36 0 68 43t53 107t33.5 116t17.5 91zM63 459q0 19 11.5 34t30.5 15t30.5 -15t11.5 -34t-11.5 -34.5t-30.5 -15.5t-30.5 15.5t-11.5 34.5z" />
    <glyph glyph-name="k" unicode="k" horiz-adv-x="395" 
d="M107 143q-18 -105 -18 -203q0 -47 -26 -47q-20 0 -26 28q-9 48 -9 182q0 174 30 365q28 177 56 270q23 76 82 76q25 0 25 -27q0 -16 -10 -44q-14 -38 -42 -153q-42 -179 -61 -345q26 27 56 55.5t68.5 64.5t57.5 54q27 24 36 24q8 0 14.5 -7.5t6.5 -15.5q0 -15 -27 -37
q-69 -56 -197 -178q19 -7 76 -39q93 -52 121 -72q31 -22 31 -45q0 -14 -21 -14q-11 0 -31 10l-135 71q-40 21 -57 27z" />
    <glyph glyph-name="l" unicode="l" horiz-adv-x="299" 
d="M137 -39q-39 0 -65.5 36.5t-37.5 94t-15 101t-4 84.5q0 230 76 407q22 51 60 99t78 48q32 0 46 -27.5t14 -62.5q0 -88 -37.5 -205t-87.5 -207q-8 -16 -26.5 -44.5t-21.5 -32.5q-16 -25 -17 -29q-4 -11 -4 -44q0 -19 2.5 -42t8.5 -51t19.5 -46.5t32.5 -18.5q32 0 74 41
t68 81l26 41q9 14 21 14q14 0 14 -18q0 -13 -14 -35l-1 -1q-41 -68 -97.5 -125.5t-111.5 -57.5zM232 783q-42 0 -83 -137q-57 -189 -57 -302q0 -19 1 -29q58 98 106 221t48 210q0 37 -15 37z" />
    <glyph glyph-name="m" unicode="m" horiz-adv-x="793" 
d="M304 5q-36 0 -36 232v62q0 21 -10 21q-27 0 -100 -117.5t-100 -177.5q-14 -30 -36 -30q-20 0 -20 22q0 48 31.5 206t50.5 193q10 18 32.5 29t45.5 11q21 0 21 -24q0 -10 -4.5 -25.5t-9 -27t-12.5 -29.5t-10 -23q-20 -47 -30 -114q4 7 12 18.5t29.5 41t40.5 52t42 41
t38 18.5q22 0 32 -24t10 -51l-2 -141q-1 -52 8 -52q5 0 14 18q19 31 79 116q2 3 17 24.5t22 31t22.5 28t27 27.5t27.5 16.5t31 7.5q30 0 46 -25.5t16 -57.5q0 -38 -7 -115.5t-7 -115.5q0 -54 27 -54q30 0 75 41t73 78q20 26 31 26q14 0 14 -21q0 -7 -10 -20
q-38 -52 -100.5 -104.5t-109.5 -52.5q-69 0 -69 134q0 30 4.5 90t4.5 91q0 41 -17 41q-14 0 -36.5 -25.5t-49 -66t-49 -79t-44.5 -78t-28 -48.5q-11 -18 -27 -18z" />
    <glyph glyph-name="n" unicode="n" horiz-adv-x="451" 
d="M22 -36q-21 0 -21 25q0 24 2.5 51.5t5 47.5t8.5 54t9 48.5t11 53.5t10 47q1 4 7.5 40t10.5 54t21.5 33t36.5 15q30 0 30 -34q0 -38 -26 -107q-19 -49 -27 -115q14 20 35.5 49.5t68.5 79t70 49.5q40 0 40 -97v-140q0 -60 32 -60q35 0 74 45.5t64 92.5q13 23 24 23
q7 0 12 -6.5t5 -13.5q0 -3 -7 -20q-26 -56 -83.5 -113t-108.5 -57q-73 0 -73 117v15l4 114q0 20 -9 20q-7 0 -23 -16q-37 -36 -87 -117q-31 -50 -75 -146q-16 -32 -41 -32z" />
    <glyph glyph-name="o" unicode="o" horiz-adv-x="368" 
d="M25 114q0 53 21 112.5t65.5 106t100.5 46.5q50 0 72 -41t22 -96q0 -71 -26.5 -135t-80.5 -100q-40 -26 -78 -26q-49 0 -72.5 40t-23.5 93zM212 313q-50 0 -82.5 -71.5t-32.5 -129.5q0 -31 11.5 -56.5t38.5 -25.5q21 0 46 19q35 27 53 75.5t18 98.5q0 20 -3.5 38.5t-16 35
t-32.5 16.5z" />
    <glyph glyph-name="p" unicode="p" horiz-adv-x="469" 
d="M107 70v-5q3 3 7 3t18.5 -7t30.5 -7q37 0 73 48t55 104.5t19 92.5q0 49 -30 49q-31 0 -81.5 -56t-73.5 -97q-6 -9 -18 -125zM261 -17q-46 0 -92 12t-65 40l-2 -25q-29 -331 -71 -435q-27 -66 -69 -66q-30 0 -42.5 33.5t-12.5 69.5q0 162 112 498q2 5 20 193q0 1 1 16.5
t2 22t4.5 18t10 16.5t16.5 5q19 0 35 -21t16 -40q0 -13 -3 -38t-4 -31q104 139 175 139q44 0 63 -31.5t19 -78.5q0 -57 -25 -125t-63 -105q-23 -23 -47 -27q15 -3 30 -3q66 0 125 44.5t94 107.5q1 1 4 7t5 9t6 6t8 3q17 0 17 -18q0 -15 -9 -28q-102 -168 -258 -168zM32 14
q-30 -72 -56 -200.5t-26 -206.5q0 -45 12 -45q17 0 34 110q24 153 36 342z" />
    <glyph glyph-name="q" unicode="q" horiz-adv-x="455" 
d="M228 -65q-28 -121 -43 -208q-17 -94 -17 -151q0 -41 11 -41q5 0 16 18q20 40 30 126.5t10 155.5q0 61 -7 100zM112 -396q0 160 68 395q8 27 28.5 89.5t29.5 96.5q-24 -50 -66.5 -111.5t-74.5 -72.5q-20 -6 -31 -6q-32 0 -45.5 28t-13.5 64q0 75 33.5 145.5t91.5 124.5
q63 59 113 59q30 0 30 -25q0 -11 -7 -19t-23 -18t-18 -11q-53 -38 -105.5 -118.5t-52.5 -137.5q0 -37 17 -37q11 0 28.5 20t36 52t35 62t32.5 60.5t20 38.5q24 40 47 40q14 0 27.5 -8.5t13.5 -21.5q0 -15 -4.5 -33.5t-11.5 -41t-10 -33.5q-7 -28 -18 -80.5t-16 -73.5
q17 -5 31 -5q52 0 98 42t76 98q15 30 27 30q16 0 16 -21q0 -12 -17 -44q-36 -62 -92.5 -107t-118.5 -45q-12 0 -18 1q10 -43 10 -134q0 -217 -48 -307q-33 -60 -64 -60q-16 0 -27.5 14.5t-17 36.5t-7.5 40t-2 34z" />
    <glyph glyph-name="r" unicode="r" horiz-adv-x="390" 
d="M168 213q0 44 -59 62q-46 -128 -96 -179q-15 -15 -27 -15q-13 0 -13 13q0 9 9 22q25 37 38.5 58t28.5 56t19 67q-26 35 -26 84q0 18 6 43t20.5 47t32.5 22t25.5 -26.5t7.5 -51.5q0 -24 -3 -48q10 -15 31.5 -29.5t40 -25t33 -32.5t14.5 -53q0 -17 -5 -39q-20 -85 -20 -141
q0 -37 19 -37q30 0 77 49.5t77 93.5q15 22 26 22q14 0 14 -21q0 -9 -8 -21q-32 -52 -93 -111t-104 -59q-70 0 -70 140q0 19 2.5 55t2.5 55z" />
    <glyph glyph-name="s" unicode="s" horiz-adv-x="389" 
d="M160 328q10 -24 36.5 -72.5t42 -89t15.5 -78.5q0 -44 -23 -77q31 0 85.5 51.5t80.5 90.5q15 22 26 22q15 0 15 -20q0 -3 -9 -21q-60 -94 -131 -140.5t-175 -46.5q-84 0 -118 33q-11 11 -11 22q0 15 16 15q4 0 18 -7q25 -19 71 -19q39 0 60 24t21 63q0 42 -21.5 97.5
t-48.5 96.5q-42 -120 -98 -176q-16 -16 -26 -16q-14 0 -14 14q0 10 12 26q68 85 102 191q-9 25 -9 53q0 36 20.5 76.5t53.5 40.5q17 0 24.5 -17t7.5 -37q0 -40 -23 -99z" />
    <glyph glyph-name="t" unicode="t" horiz-adv-x="309" 
d="M230 474q-20 -77 -83 -180l-42 -61q-2 -10 -2 -22q0 -30 4 -68t19.5 -80t39.5 -42q69 0 165 154q13 23 26 23q14 0 14 -15t-16 -41q-23 -39 -52.5 -76.5t-74 -71.5t-81.5 -34q-36 0 -62.5 33t-39 83.5t-17.5 93t-5 77.5q0 112 17 196q-10 -3 -21 -3q-24 0 -24 24
q0 28 51 33q8 25 10.5 33t12.5 39t17 46.5t19.5 43t24 43.5t26 33t31 25t33.5 8q45 0 45 -90q0 -84 -22 -157q61 8 68 8q14 0 14 -13q0 -11 -13 -19q-16 -10 -82 -23zM218 718q-30 0 -62 -83t-38 -130q7 1 36.5 4.5t45.5 6.5q28 89 28 172q0 30 -10 30zM112 451
q-7 -32 -17 -160q23 29 50.5 83t37.5 89q-9 -2 -33.5 -5t-37.5 -7z" />
    <glyph glyph-name="u" unicode="u" horiz-adv-x="500" 
d="M19 130q0 102 27 183q7 22 26 35.5t42 13.5t23 -22q0 -7 -7 -33q-47 -148 -47 -236q0 -40 19 -40q30 0 78.5 55.5t83.5 113.5t51 95q1 3 6 15.5t8 18.5t9 14.5t13.5 12t17.5 3.5q22 0 22 -17q0 -8 -10 -38q-17 -44 -28.5 -107.5t-11.5 -109.5q0 -71 30 -71
q26 0 76.5 59.5t78.5 105.5q17 28 30 28q14 0 14 -19q0 -7 -7 -21q-31 -60 -96.5 -128.5t-116.5 -68.5q-66 0 -66 141q0 25 2 38q-113 -162 -195 -162q-25 0 -41 13.5t-22 39t-7.5 43.5t-1.5 45z" />
    <glyph glyph-name="v" unicode="v" horiz-adv-x="399" 
d="M0 321q0 13 13 26t26 13q15 0 30 -17q36 -39 66 -108.5t45 -132.5q9 16 42 77.5t56 99.5t48 74q16 21 26 21t18.5 -7t8.5 -16q0 -5 -7 -14q-26 -35 -102 -165.5t-83 -157.5q-6 -34 -30 -34q-12 0 -19.5 9t-9.5 19l-1 9q-17 67 -50 155.5t-63 127.5q-14 13 -14 21z" />
    <glyph glyph-name="w" unicode="w" horiz-adv-x="578" 
d="M518 236q0 -38 -5.5 -79t-18.5 -88t-41 -77.5t-68 -30.5q-32 0 -59 27q-22 22 -34.5 85t-14.5 115q-6 -8 -16 -20.5t-39 -44.5t-54 -57t-53.5 -45t-46.5 -20q-54 0 -54 89q0 42 26.5 127.5t50.5 121.5q14 21 45 21q32 0 32 -22q0 -6 -7 -20q-28 -54 -48.5 -120.5
t-20.5 -118.5q0 -14 6 -14q16 0 58 42q52 52 95 115q4 7 16 27t18 28q9 13 37 13q29 0 29 -46q0 -49 16 -138.5t41 -89.5q34 0 53 78t19 130q0 50 -7 64q-3 5 -8 11.5t-7.5 12.5t-2.5 15q0 10 6.5 19t16.5 9q40 0 40 -119z" />
    <glyph glyph-name="x" unicode="x" horiz-adv-x="426" 
d="M244 185q40 -121 69 -121q40 0 80.5 41.5t64.5 87.5q14 27 28 27q15 0 15 -20q0 -2 -7 -20q-31 -63 -86.5 -121.5t-109.5 -58.5q-26 0 -48.5 20t-33 39t-23.5 49l-90 -139q-6 -9 -17 -9q-9 0 -17 6t-8 15q0 6 10 23t26 40.5t30 43.5t30 41.5t18 24.5l-34 118
q-5 24 -13 24q-7 0 -45.5 -80t-52.5 -80q-16 0 -16 15q0 11 7 23q3 7 14.5 33t22.5 48.5t25 47t28.5 39t27.5 14.5q25 0 47.5 -32t32.5 -64l10 -32q17 24 47 72t45 70q8 12 17 12q15 0 15 -16q0 -9 -7 -21q-14 -25 -30.5 -51t-38.5 -59t-33 -50z" />
    <glyph glyph-name="y" unicode="y" horiz-adv-x="455" 
d="M117 -414q-42 0 -63 31.5t-21 76.5q0 47 25.5 98t68 95t83.5 78t85 63q1 19 1 57q0 77 -3 155q-33 -54 -110 -130t-121 -76q-54 0 -54 80q0 69 35 180q10 31 13 38q14 28 38 28q17 0 30 -12t13 -29q0 -8 -3.5 -18.5t-9.5 -24t-8 -17.5q-42 -105 -42 -157q0 -21 10 -21
q16 0 70 54q24 25 47.5 53.5t54.5 70t44 57.5q1 1 4.5 5.5t5.5 6.5t5.5 6t6 5.5t6.5 3t8 1.5q10 0 20 -7q16 -11 16 -111q0 -83 -3 -141.5t-12 -134.5t-31.5 -142t-57.5 -120q-66 -102 -151 -102zM290 -15q-42 -34 -71 -60t-66 -66t-56.5 -82.5t-19.5 -84.5q0 -64 39 -64
q34 0 81 60q36 48 60.5 134.5t32.5 162.5z" />
    <glyph glyph-name="z" unicode="z" horiz-adv-x="377" 
d="M19 117q-7 0 -11.5 5t-4.5 12q0 12 12 28q13 19 38 70.5t27 67.5q-6 -1 -14 -1q-59 0 -59 46q0 25 17 40t42 15t38.5 -18t14.5 -44q64 31 114 31q39 0 61.5 -20.5t22.5 -59.5q0 -31 -17 -62t-58.5 -79t-43.5 -51q97 -63 97 -214q0 -65 -26 -132t-80 -116t-121 -49
q-42 0 -68 23.5t-26 64.5q0 89 68.5 168.5t159.5 125.5q-13 40 -68 89q-24 19 -24 34q0 11 19 28q41 37 74.5 83.5t33.5 85.5q0 34 -42 34q-37 0 -79 -19q-5 -23 -9 -34q-10 -34 -40 -93t-48 -59zM84 330q0 41 -23 41q-21 0 -21 -22q0 -20 33 -20q7 0 11 1zM213 -85
q-81 -37 -139.5 -97.5t-58.5 -136.5q0 -52 41 -52q44 0 91 54q30 33 49.5 92t19.5 107q0 16 -3 33z" />
    <glyph glyph-name="bar" unicode="|" horiz-adv-x="161" 
d="M60 -78v787h41v-787h-41z" />
    <glyph glyph-name="asciitilde" unicode="~" horiz-adv-x="377" 
d="M243 587q-17 0 -54.5 21t-55.5 21t-73 -32v37q48 27 73 27q12 0 27 -6t33 -16.5t26 -13.5q13 -6 24 -6q21 0 74 31v-38q-44 -25 -74 -25z" />
    <glyph glyph-name="exclamdown" unicode="&#xa1;" horiz-adv-x="314" 
d="M79 -200q-49 0 -49 56q0 18 9 61q14 64 58 266q22 104 32 156q6 37 30 37q15 0 15 -30l-1 -14q-3 -36 -7 -103q-2 -25 -4.5 -71t-5 -83.5t-5.5 -70.5q-8 -113 -13 -135q-4 -20 -9 -33t-18 -24.5t-32 -11.5zM173 577q18 0 29.5 -11t11.5 -29q0 -19 -8.5 -35t-26.5 -16
q-16 0 -29.5 12t-13.5 28q0 51 37 51z" />
    <glyph glyph-name="sterling" unicode="&#xa3;" horiz-adv-x="626" 
d="M375 342q0 -8 -32.5 -14.5t-65.5 -9.5l-33 -3q-1 -7 -5.5 -40.5t-8 -56.5t-8.5 -54t-10.5 -54t-11.5 -37q40 0 115 -25t115 -25q36 0 68 21.5t50 47t35 47t26 21.5q6 0 11.5 -4t5.5 -10q0 -9 -8 -25q-31 -58 -78.5 -100.5t-102.5 -42.5q-39 0 -114 14.5t-114 14.5
q-49 0 -127 -37q-8 -4 -14 -4q-14 0 -28.5 18.5t-14.5 33.5q0 17 10.5 25.5t29.5 13t26 8.5q9 6 17.5 19t15 33.5t11 39.5t8.5 46t6 42t5 39t3 27h-48q-29 0 -42 5t-13 20q0 13 10 19.5t23 6.5q14 0 40 -2.5t36 -2.5q6 47 11 79.5t15.5 86.5t25 91t34 74t48.5 56.5t63 19.5
q51 0 78 -52t27 -108q0 -23 -20 -23q-12 0 -18 20.5t-8.5 45t-15 45t-36.5 20.5q-20 0 -39.5 -36.5t-33 -89t-24 -105t-15.5 -89.5l-5 -36l99 3q26 0 26 -17z" />
    <glyph glyph-name="brokenbar" unicode="&#xa6;" horiz-adv-x="153" 
d="M93 4h-33v355h33v-355zM93 445h-33v355h33v-355z" />
    <glyph glyph-name="dieresis" unicode="&#xa8;" horiz-adv-x="338" 
d="M101 436q-18 0 -29.5 11t-11.5 29q0 20 8.5 35.5t26.5 15.5q16 0 29.5 -12t13.5 -28q0 -51 -37 -51zM241 436q-18 0 -29.5 11t-11.5 29q0 20 8.5 35.5t26.5 15.5q16 0 29.5 -12t13.5 -28q0 -51 -37 -51z" />
    <glyph glyph-name="copyright" unicode="&#xa9;" horiz-adv-x="584" 
d="M60 224q0 96 68 164t164 68t164 -68t68 -164t-68 -164t-164 -68t-164 68t-68 164zM103 224q0 -79 55.5 -134.5t134.5 -55.5t134.5 55.5t55.5 134.5t-55.5 134.5t-134.5 55.5t-134.5 -55.5t-55.5 -134.5zM371 183h47q-10 -48 -42.5 -76.5t-75.5 -28.5q-62 0 -100.5 41.5
t-38.5 104.5q0 64 37.5 105.5t100.5 41.5q45 0 77.5 -27t39.5 -75h-45q-6 28 -25 45t-47 17q-42 0 -65 -29.5t-23 -76.5q0 -44 24.5 -75t64.5 -31q29 0 47.5 17.5t23.5 46.5z" />
    <glyph glyph-name="guillemotleft" unicode="&#xab;" horiz-adv-x="581" 
d="M60 171q0 9 8 14l202 130q18 11 34 11q17 0 17 -11q0 -13 -6 -18l-150 -126l148 -135q5 -4 5 -16q0 -16 -18 -16q-15 0 -30 10l-202 144q-8 6 -8 13zM260 171q0 9 8 14l202 130q18 11 34 11q17 0 17 -11q0 -13 -6 -18l-150 -126l148 -135q5 -4 5 -16q0 -16 -18 -16
q-15 0 -30 10l-202 144q-8 6 -8 13z" />
    <glyph glyph-name="logicalnot" unicode="&#xac;" horiz-adv-x="475" 
d="M382 165h-322v33h355v-131h-33v98z" />
    <glyph glyph-name="registered" unicode="&#xae;" horiz-adv-x="584" 
d="M60 224q0 96 68 164t164 68t164 -68t68 -164t-68 -164t-164 -68t-164 68t-68 164zM103 224q0 -79 55.5 -134.5t134.5 -55.5t134.5 55.5t55.5 134.5t-55.5 134.5t-134.5 55.5t-134.5 -55.5t-55.5 -134.5zM202 87v275h105q95 0 95 -78q0 -31 -18.5 -52.5t-46.5 -25.5
q10 -16 75 -119h-54l-75 119h-32v-119h-49zM251 322v-76h49q27 0 39.5 8.5t12.5 31.5q0 36 -52 36h-49z" />
    <glyph glyph-name="plusminus" unicode="&#xb1;" horiz-adv-x="475" 
d="M255 188v-101h-34v101h-161v34h161v102h34v-102h160v-34h-160zM60 -3v34h355v-34h-355z" />
    <glyph glyph-name="acute" unicode="&#xb4;" horiz-adv-x="276" 
d="M74 432q-14 0 -14 15q0 6 7 20l58 102q28 49 29 51q12 15 30 15q14 0 23 -9.5t9 -22.5q0 -11 -7 -21q-7 -11 -42 -53q-41 -50 -70 -82q-14 -15 -23 -15z" />
    <glyph glyph-name="guillemotright" unicode="&#xbb;" horiz-adv-x="581" 
d="M521 171q0 -7 -8 -13l-202 -144q-15 -10 -30 -10q-18 0 -18 16q0 12 5 16l148 135l-150 126q-6 5 -6 18q0 11 17 11q16 0 34 -11l202 -130q8 -5 8 -14zM321 171q0 -7 -8 -13l-202 -144q-15 -10 -30 -10q-18 0 -18 16q0 12 5 16l148 135l-150 126q-6 5 -6 18q0 11 17 11
q16 0 34 -11l202 -130q8 -5 8 -14z" />
    <glyph glyph-name="questiondown" unicode="&#xbf;" horiz-adv-x="502" 
d="M304 521q0 51 37 51q18 0 29.5 -11t11.5 -29q0 -19 -8.5 -35t-26.5 -16q-16 0 -29.5 12t-13.5 28zM331 406q20 0 20 -40q0 -44 -23.5 -87t-56.5 -78.5t-66 -72.5t-56.5 -85.5t-23.5 -101.5q0 -35 25 -62t59 -27q37 0 67 27.5t30 64.5q0 26 -14 54l-14 28q0 8 6.5 13
t14.5 5q23 0 38 -35.5t15 -63.5q0 -60 -49.5 -102.5t-110.5 -42.5q-71 0 -116.5 35t-45.5 104q0 46 20 90.5t49.5 78t65 69t66.5 64.5t54 64t26 67q0 2 1 11t2 12t5 7t12 4z" />
    <glyph glyph-name="Agrave" unicode="&#xc0;" 
d="M393 305q-7 64 -12 131q-3 64 -6 75q0 6 -4 6q-3 0 -10 -17t-15 -39.5t-9 -24.5q-38 -98 -60 -146q5 1 116 15zM575 -16q-133 0 -175 282q-13 -2 -64 -10.5t-79 -11.5q-6 -12 -25.5 -55.5t-30.5 -65.5t-33 -62t-41.5 -62.5t-45.5 -47t-56.5 -36t-63.5 -11.5
q-23 0 -47 6.5t-24 23.5t22 17l53 -9q37 0 79 40.5t76.5 97.5t74 140t64.5 144.5t54 136t36 91.5q23 57 23 110q0 20 33.5 36t56.5 16q11 0 17 -9.5t6 -21.5q0 -2 -1 -11.5t-2.5 -27t-2.5 -41.5t-2 -63.5t-1 -84.5q0 -106 7 -174q11 1 30.5 4.5t35.5 5.5t30 2q19 0 19 -14
q0 -18 -25 -26q-11 -4 -25.5 -6.5t-33.5 -4.5t-27 -3q3 -35 12 -82.5t31.5 -99.5t49.5 -52q29 0 67.5 30t62.5 60l23 30q6 17 23 17q6 0 11.5 -4t5.5 -10q0 -9 -8 -25q-31 -56 -85.5 -107.5t-104.5 -51.5zM442 792q-4 0 -10 4t-10 8l-3 3q-29 32 -70 82q-35 42 -42 53
q-7 10 -7 21q0 13 9 22.5t23 9.5q18 0 30 -15q1 -2 29 -51l58 -102q7 -14 7 -20q0 -15 -14 -15z" />
    <glyph glyph-name="Aacute" unicode="&#xc1;" 
d="M393 305q-7 64 -12 131q-3 64 -6 75q0 6 -4 6q-3 0 -10 -17t-15 -39.5t-9 -24.5q-38 -98 -60 -146q5 1 116 15zM575 -16q-133 0 -175 282q-13 -2 -64 -10.5t-79 -11.5q-6 -12 -25.5 -55.5t-30.5 -65.5t-33 -62t-41.5 -62.5t-45.5 -47t-56.5 -36t-63.5 -11.5
q-23 0 -47 6.5t-24 23.5t22 17l53 -9q37 0 79 40.5t76.5 97.5t74 140t64.5 144.5t54 136t36 91.5q23 57 23 110q0 20 33.5 36t56.5 16q11 0 17 -9.5t6 -21.5q0 -2 -1 -11.5t-2.5 -27t-2.5 -41.5t-2 -63.5t-1 -84.5q0 -106 7 -174q11 1 30.5 4.5t35.5 5.5t30 2q19 0 19 -14
q0 -18 -25 -26q-11 -4 -25.5 -6.5t-33.5 -4.5t-27 -3q3 -35 12 -82.5t31.5 -99.5t49.5 -52q29 0 67.5 30t62.5 60l23 30q6 17 23 17q6 0 11.5 -4t5.5 -10q0 -9 -8 -25q-31 -56 -85.5 -107.5t-104.5 -51.5zM424 792q-14 0 -14 15q0 6 7 20l58 102q28 49 29 51q12 15 30 15
q14 0 23 -9.5t9 -22.5q0 -11 -7 -21t-42 -53q-41 -50 -70 -82q-14 -15 -23 -15z" />
    <glyph glyph-name="Acircumflex" unicode="&#xc2;" 
d="M429 922q7 0 12 -5l108 -125q9 -11 9 -21q0 -13 -10 -13q-6 0 -14 6l-105 93l-112 -92q-8 -6 -14 -6q-13 0 -13 14q0 8 9 19l119 125q5 5 11 5zM393 305q-7 64 -12 131q-3 64 -6 75q0 6 -4 6q-3 0 -10 -17t-15 -39.5t-9 -24.5q-38 -98 -60 -146q5 1 116 15zM575 -16
q-133 0 -175 282q-13 -2 -64 -10.5t-79 -11.5q-6 -12 -25.5 -55.5t-30.5 -65.5t-33 -62t-41.5 -62.5t-45.5 -47t-56.5 -36t-63.5 -11.5q-23 0 -47 6.5t-24 23.5t22 17l53 -9q37 0 79 40.5t76.5 97.5t74 140t64.5 144.5t54 136t36 91.5q23 57 23 110q0 20 33.5 36t56.5 16
q11 0 17 -9.5t6 -21.5q0 -2 -1 -11.5t-2.5 -27t-2.5 -41.5t-2 -63.5t-1 -84.5q0 -106 7 -174q11 1 30.5 4.5t35.5 5.5t30 2q19 0 19 -14q0 -18 -25 -26q-11 -4 -25.5 -6.5t-33.5 -4.5t-27 -3q3 -35 12 -82.5t31.5 -99.5t49.5 -52q29 0 67.5 30t62.5 60l23 30q6 17 23 17
q6 0 11.5 -4t5.5 -10q0 -9 -8 -25q-31 -56 -85.5 -107.5t-104.5 -51.5z" />
    <glyph glyph-name="Atilde" unicode="&#xc3;" 
d="M497 783q-24 0 -41 8.5t-24.5 19t-19 19t-24.5 8.5q-24 0 -42 -10.5t-18 -24.5q0 -15 -14 -15t-14 15q0 33 29 57.5t59 24.5q32 0 59 -27t50 -27q17 0 31 8.5t14 20.5q0 14 15 14q14 0 14 -16q0 -35 -21 -55t-53 -20zM393 305q-7 64 -12 131q-3 64 -6 75q0 6 -4 6
q-3 0 -10 -17t-15 -39.5t-9 -24.5q-38 -98 -60 -146q5 1 116 15zM575 -16q-133 0 -175 282q-13 -2 -64 -10.5t-79 -11.5q-6 -12 -25.5 -55.5t-30.5 -65.5t-33 -62t-41.5 -62.5t-45.5 -47t-56.5 -36t-63.5 -11.5q-23 0 -47 6.5t-24 23.5t22 17l53 -9q37 0 79 40.5t76.5 97.5
t74 140t64.5 144.5t54 136t36 91.5q23 57 23 110q0 20 33.5 36t56.5 16q11 0 17 -9.5t6 -21.5q0 -2 -1 -11.5t-2.5 -27t-2.5 -41.5t-2 -63.5t-1 -84.5q0 -106 7 -174q11 1 30.5 4.5t35.5 5.5t30 2q19 0 19 -14q0 -18 -25 -26q-11 -4 -25.5 -6.5t-33.5 -4.5t-27 -3
q3 -35 12 -82.5t31.5 -99.5t49.5 -52q29 0 67.5 30t62.5 60l23 30q6 17 23 17q6 0 11.5 -4t5.5 -10q0 -9 -8 -25q-31 -56 -85.5 -107.5t-104.5 -51.5z" />
    <glyph glyph-name="Adieresis" unicode="&#xc4;" 
d="M361 796q-18 0 -29.5 11t-11.5 29q0 20 8.5 35.5t26.5 15.5q16 0 29.5 -12t13.5 -28q0 -51 -37 -51zM501 796q-18 0 -29.5 11t-11.5 29q0 20 8.5 35.5t26.5 15.5q16 0 29.5 -12t13.5 -28q0 -51 -37 -51zM393 305q-7 64 -12 131q-3 64 -6 75q0 6 -4 6q-3 0 -10 -17
t-15 -39.5t-9 -24.5q-38 -98 -60 -146q5 1 116 15zM575 -16q-133 0 -175 282q-13 -2 -64 -10.5t-79 -11.5q-6 -12 -25.5 -55.5t-30.5 -65.5t-33 -62t-41.5 -62.5t-45.5 -47t-56.5 -36t-63.5 -11.5q-23 0 -47 6.5t-24 23.5t22 17l53 -9q37 0 79 40.5t76.5 97.5t74 140
t64.5 144.5t54 136t36 91.5q23 57 23 110q0 20 33.5 36t56.5 16q11 0 17 -9.5t6 -21.5q0 -2 -1 -11.5t-2.5 -27t-2.5 -41.5t-2 -63.5t-1 -84.5q0 -106 7 -174q11 1 30.5 4.5t35.5 5.5t30 2q19 0 19 -14q0 -18 -25 -26q-11 -4 -25.5 -6.5t-33.5 -4.5t-27 -3q3 -35 12 -82.5
t31.5 -99.5t49.5 -52q29 0 67.5 30t62.5 60l23 30q6 17 23 17q6 0 11.5 -4t5.5 -10q0 -9 -8 -25q-31 -56 -85.5 -107.5t-104.5 -51.5z" />
    <glyph glyph-name="Aring" unicode="&#xc5;" 
d="M432 788q-26 0 -39 20.5t-13 48.5q0 40 26 77.5t64 37.5q27 0 39 -21.5t12 -50.5q0 -39 -26 -75.5t-63 -36.5zM471 937q-22 0 -37 -32t-15 -57q0 -31 14 -31q23 0 40.5 31t17.5 55q0 11 -5.5 22.5t-14.5 11.5zM393 305q-7 64 -12 131q-3 64 -6 75q0 6 -4 6q-3 0 -10 -17
t-15 -39.5t-9 -24.5q-38 -98 -60 -146q5 1 116 15zM575 -16q-133 0 -175 282q-13 -2 -64 -10.5t-79 -11.5q-6 -12 -25.5 -55.5t-30.5 -65.5t-33 -62t-41.5 -62.5t-45.5 -47t-56.5 -36t-63.5 -11.5q-23 0 -47 6.5t-24 23.5t22 17l53 -9q37 0 79 40.5t76.5 97.5t74 140
t64.5 144.5t54 136t36 91.5q23 57 23 110q0 20 33.5 36t56.5 16q11 0 17 -9.5t6 -21.5q0 -2 -1 -11.5t-2.5 -27t-2.5 -41.5t-2 -63.5t-1 -84.5q0 -106 7 -174q11 1 30.5 4.5t35.5 5.5t30 2q19 0 19 -14q0 -18 -25 -26q-11 -4 -25.5 -6.5t-33.5 -4.5t-27 -3q3 -35 12 -82.5
t31.5 -99.5t49.5 -52q29 0 67.5 30t62.5 60l23 30q6 17 23 17q6 0 11.5 -4t5.5 -10q0 -9 -8 -25q-31 -56 -85.5 -107.5t-104.5 -51.5z" />
    <glyph glyph-name="AE" unicode="&#xc6;" horiz-adv-x="867" 
d="M655 37q111 0 198 105q6 7 16 24t19 27t17 10q17 0 17 -18q0 -14 -21 -44q-51 -72 -128.5 -120t-159.5 -48q-176 0 -213 293q-13 -2 -64 -10.5t-79 -11.5q-7 -15 -22.5 -49t-26 -56t-28 -55.5t-33 -55.5t-37.5 -47.5t-43.5 -41t-49 -25.5t-56.5 -10q-23 0 -47 6.5
t-24 23.5t22 17q8 0 25.5 -4.5t27.5 -4.5q37 0 79 40.5t77.5 98.5t74 139.5t64 145t53 135t36.5 91.5q23 53 23 110q0 20 33.5 36t56.5 16q11 0 17 -12t6 -24v-3q0 -37 -4 -104t-5 -91q49 106 119 176t156 70q51 0 80.5 -28.5t29.5 -78.5q0 -34 -20 -34q-9 0 -15.5 14
t-11.5 31t-22 31t-44 14q-33 0 -67.5 -27.5t-61 -68t-49.5 -89.5t-37.5 -89.5t-21.5 -70.5q14 1 133 10t145 9q28 0 28 -14q0 -20 -43 -30q-220 -49 -278 -57q0 -2 -0.5 -8.5t-0.5 -10.5q0 -31 7 -66t23 -74.5t50 -65.5t80 -26zM393 305q-3 21 -7 78t-7.5 95.5t-7.5 38.5
q-5 0 -21.5 -41.5t-39 -101.5t-33.5 -84q5 1 116 15z" />
    <glyph glyph-name="Ccedilla" unicode="&#xc7;" horiz-adv-x="605" 
d="M415 -98q0 -44 -30.5 -65t-67.5 -21q-14 0 -29 8t-15 21q0 9 5.5 15t14.5 6l21 -2q18 0 33.5 13t15.5 29q0 28 -15 61q-87 0 -151 47.5t-94 119.5t-30 157q0 71 22 148t62 145.5t105 113t141 44.5q60 0 98.5 -40t38.5 -101q0 -39 -10 -95t-29 -69q-10 -7 -24 -7
q-25 0 -25 18q0 9 10.5 36t11.5 30q13 50 13 86t-20.5 61t-55.5 25q-52 0 -97 -45.5t-72 -110.5t-42 -129t-15 -110q0 -267 190 -267q135 0 222 108q7 9 31 47q15 23 27 23q7 0 11.5 -5t4.5 -12q0 -6 -13 -32q-38 -68 -107 -117t-147 -64q11 -28 11 -70z" />
    <glyph glyph-name="Egrave" unicode="&#xc8;" horiz-adv-x="515" 
d="M399 746q51 0 80.5 -28.5t29.5 -78.5q0 -34 -20 -34q-9 0 -15.5 14t-11.5 31t-22 31t-44 14q-41 0 -80 -37t-66.5 -95t-45 -106.5t-28.5 -92.5q29 9 111 14t134 5q41 0 41 -5q0 -14 -9.5 -24t-23.5 -13h-2q-39 0 -251 -54q-8 -2 -11 -3q-3 -18 -3 -35q0 -55 11 -104
t46.5 -89.5t91.5 -40.5q54 0 104 30t86 77q7 9 18 26t16 24q9 11 18 11q17 0 17 -18q0 -15 -21 -44q-50 -72 -128 -120t-160 -48q-54 0 -95 25.5t-62.5 67.5t-32 89t-10.5 98q0 7 0.5 15.5t0.5 11.5h-9q-62 0 -62 34q0 9 4.5 16t9.5 11.5t16 8.5t16.5 5t18 4t14.5 3
q11 47 29.5 99t49 107t66.5 98.5t84.5 71.5t99.5 28zM412 792q-4 0 -10 4t-10 8l-3 3q-29 32 -70 82q-35 42 -42 53q-7 10 -7 21q0 13 9 22.5t23 9.5q18 0 30 -15q1 -2 29 -51l58 -102q7 -14 7 -20q0 -15 -14 -15z" />
    <glyph glyph-name="Eacute" unicode="&#xc9;" horiz-adv-x="515" 
d="M399 746q51 0 80.5 -28.5t29.5 -78.5q0 -34 -20 -34q-9 0 -15.5 14t-11.5 31t-22 31t-44 14q-41 0 -80 -37.5t-67 -95.5t-45.5 -107t-27.5 -91q23 7 112.5 13t132.5 6q41 0 41 -5q0 -14 -9.5 -24t-23.5 -13h-1q-35 0 -263 -57q-3 -11 -3 -35q0 -41 7 -78.5t22.5 -74.5
t46.5 -59t73 -22q105 0 190 107q7 9 18.5 27t15.5 23q8 11 18 11q17 0 17 -18q0 -14 -21 -44q-51 -72 -128.5 -120t-159.5 -48q-54 0 -94.5 25t-62.5 67.5t-32.5 89.5t-10.5 98l1 27h-9q-62 0 -62 34q0 11 5 18.5t15.5 12.5t18 7.5t22.5 5.5t18 4q14 61 41 126t67.5 130
t98.5 106.5t122 41.5zM384 792q-14 0 -14 15q0 6 7 20l58 102q28 49 29 51q12 15 30 15q14 0 23 -9.5t9 -22.5q0 -11 -7 -21t-42 -53q-52 -63 -72 -84q-13 -13 -21 -13z" />
    <glyph glyph-name="Ecircumflex" unicode="&#xca;" horiz-adv-x="515" 
d="M396 922q8 0 12 -5l108 -125q9 -11 9 -21q0 -13 -10 -13q-9 0 -14 6l-105 93l-112 -92q-6 -6 -14 -6q-13 0 -13 14q0 8 9 19l119 125q4 5 11 5zM399 746q51 0 80.5 -28.5t29.5 -78.5q0 -34 -20 -34q-9 0 -15.5 14t-11.5 31t-22 31t-44 14q-41 0 -80 -37t-66.5 -95
t-45 -106.5t-28.5 -92.5q29 9 111 14t134 5q41 0 41 -5q0 -14 -9.5 -24t-23.5 -13h-2q-39 0 -251 -54q-8 -2 -11 -3q-3 -18 -3 -35q0 -55 11 -104t46.5 -89.5t91.5 -40.5q54 0 104 30t86 77q7 9 18 26t16 24q9 11 18 11q17 0 17 -18q0 -15 -21 -44q-50 -72 -128 -120
t-160 -48q-54 0 -95 25.5t-62.5 67.5t-32 89t-10.5 98q0 7 0.5 15.5t0.5 11.5h-9q-62 0 -62 34q0 9 4.5 16t9.5 11.5t16 8.5t16.5 5t18 4t14.5 3q11 47 29.5 99t49 107t66.5 98.5t84.5 71.5t99.5 28z" />
    <glyph glyph-name="Edieresis" unicode="&#xcb;" horiz-adv-x="515" 
d="M321 786q-18 0 -29.5 11t-11.5 29q0 20 8.5 35.5t26.5 15.5q16 0 29.5 -12t13.5 -28q0 -51 -37 -51zM461 786q-18 0 -29.5 11t-11.5 29q0 20 8.5 35.5t26.5 15.5q16 0 29.5 -12t13.5 -28q0 -51 -37 -51zM399 746q51 0 80.5 -28.5t29.5 -78.5q0 -34 -20 -34q-9 0 -15.5 14
t-11.5 31t-22 31t-44 14q-41 0 -80 -37t-66.5 -95t-45 -106.5t-28.5 -92.5q29 9 111 14t134 5q41 0 41 -5q0 -14 -9.5 -24t-23.5 -13h-2q-39 0 -251 -54q-8 -2 -11 -3q-3 -18 -3 -35q0 -55 11 -104t46.5 -89.5t91.5 -40.5q54 0 104 30t86 77q7 9 18 26t16 24q9 11 18 11
q17 0 17 -18q0 -15 -21 -44q-50 -72 -128 -120t-160 -48q-54 0 -95 25.5t-62.5 67.5t-32 89t-10.5 98q0 7 0.5 15.5t0.5 11.5h-9q-62 0 -62 34q0 9 4.5 16t9.5 11.5t16 8.5t16.5 5t18 4t14.5 3q11 47 29.5 99t49 107t66.5 98.5t84.5 71.5t99.5 28z" />
    <glyph glyph-name="Igrave" unicode="&#xcc;" horiz-adv-x="456" 
d="M421 588q0 -77 -16 -174t-57.5 -207.5t-100.5 -172.5q-70 -73 -156 -73q-28 0 -59.5 14.5t-31.5 39.5q0 6 5.5 10t11.5 4q7 0 27 -15t47 -15q31 0 61 25q55 46 97.5 172.5t60 237t17.5 173.5q0 81 -43 81q-38 0 -88 -48.5t-72 -91.5q-32 -61 -32 -134q0 -28 10 -46
q9 -16 9 -28q0 -22 -20 -22q-40 0 -40 91q0 62 37 147q29 66 100 132t133 66q33 0 54.5 -15t30.5 -42t12 -51.5t3 -57.5zM330 792q-4 0 -10 4t-10 8l-3 3q-29 32 -70 82q-35 43 -42 53t-7 21q0 13 9 22.5t23 9.5q18 0 30 -15q1 -2 29 -51l58 -102q7 -14 7 -20q0 -15 -14 -15
z" />
    <glyph glyph-name="Iacute" unicode="&#xcd;" horiz-adv-x="456" 
d="M421 588q0 -77 -16 -174t-57.5 -207.5t-100.5 -172.5q-70 -73 -156 -73q-28 0 -59.5 14.5t-31.5 39.5q0 6 5.5 10t11.5 4q7 0 27 -15t47 -15q31 0 61 25q55 46 97.5 172.5t60 237t17.5 173.5q0 81 -43 81q-38 0 -88 -48.5t-72 -91.5q-32 -61 -32 -134q0 -28 10 -46
q9 -16 9 -28q0 -22 -20 -22q-40 0 -40 91q0 62 37 147q29 66 100 132t133 66q33 0 54.5 -15t30.5 -42t12 -51.5t3 -57.5zM314 792q-14 0 -14 15q0 6 7 20l58 102q28 49 29 51q12 15 30 15q14 0 23 -9.5t9 -22.5q0 -11 -7 -21t-42 -53q-41 -50 -70 -82q-14 -15 -23 -15z" />
    <glyph glyph-name="Icircumflex" unicode="&#xce;" horiz-adv-x="456" 
d="M421 588q0 -77 -16 -174t-57.5 -207.5t-100.5 -172.5q-70 -73 -156 -73q-28 0 -59.5 14.5t-31.5 39.5q0 6 5.5 10t11.5 4q7 0 27 -15t47 -15q31 0 61 25q55 46 97.5 172.5t60 237t17.5 173.5q0 81 -43 81q-38 0 -88 -48.5t-72 -91.5q-32 -61 -32 -134q0 -28 10 -46
q9 -16 9 -28q0 -22 -20 -22q-40 0 -40 91q0 62 37 147q29 66 100 132t133 66q33 0 54.5 -15t30.5 -42t12 -51.5t3 -57.5zM316 922q8 0 12 -5l108 -125q9 -11 9 -21q0 -13 -10 -13t-14 6l-105 93l-112 -92q-6 -6 -14 -6q-13 0 -13 14q0 8 9 19l119 125q4 5 11 5z" />
    <glyph glyph-name="Idieresis" unicode="&#xcf;" horiz-adv-x="456" 
d="M421 588q0 -77 -16 -174t-57.5 -207.5t-100.5 -172.5q-70 -73 -156 -73q-28 0 -59.5 14.5t-31.5 39.5q0 6 5.5 10t11.5 4q7 0 27 -15t47 -15q31 0 61 25q55 46 97.5 172.5t60 237t17.5 173.5q0 81 -43 81q-38 0 -88 -48.5t-72 -91.5q-32 -61 -32 -134q0 -28 10 -46
q9 -16 9 -28q0 -22 -20 -22q-40 0 -40 91q0 62 37 147q29 66 100 132t133 66q33 0 54.5 -15t30.5 -42t12 -51.5t3 -57.5zM241 796q-18 0 -29.5 11t-11.5 29q0 20 8.5 35.5t26.5 15.5q16 0 29.5 -12t13.5 -28q0 -51 -37 -51zM381 796q-18 0 -29.5 11t-11.5 29q0 20 8.5 35.5
t26.5 15.5q16 0 29.5 -12t13.5 -28q0 -51 -37 -51z" />
    <glyph glyph-name="Ntilde" unicode="&#xd1;" horiz-adv-x="752" 
d="M557 673q-24 0 -41 8.5t-24.5 19t-19 19t-24.5 8.5q-24 0 -42 -10.5t-18 -24.5q0 -15 -14 -15t-14 15q0 33 29 57.5t59 24.5q32 0 59 -27t50 -27q17 0 31 8.5t14 20.5q0 14 15 14q14 0 14 -16q0 -35 -21 -55t-53 -20zM14 -98q-70 0 -70 26q0 20 23 20l45 -3
q171 0 221 516q3 28 3 77q0 9 -4 24.5t-4 23.5q0 19 26.5 36.5t46.5 17.5q25 0 32 -41l3 -24q7 -42 20 -89q11 -41 29.5 -99t48 -138.5t63 -135t59.5 -54.5q16 0 31 45q14 43 26.5 123.5t18.5 138.5l5 59q7 114 7 186q0 32 29 32q19 0 19 -34q0 -52 -6.5 -141.5
t-20.5 -206.5t-44 -199t-71 -82q-45 0 -90 43t-77 104t-58 122.5t-39 104.5l-13 43q-1 -10 -3 -28t-10.5 -69.5t-20 -98t-32.5 -104t-46.5 -98.5t-64 -69t-82.5 -28z" />
    <glyph glyph-name="Ograve" unicode="&#xd2;" horiz-adv-x="613" 
d="M218 -40q-56 0 -96.5 25.5t-62 68t-31.5 89.5t-10 99q0 114 39 231t112 190q68 68 144 68q11 0 32 -5t32 -5q7 0 22 1.5t23 1.5q38 0 67 -33.5t44 -82.5t22.5 -94.5t7.5 -80.5q0 -73 -23.5 -154t-65.5 -153t-109.5 -119t-146.5 -47zM373 665q-55 0 -112 -57
q-67 -67 -109 -178.5t-42 -210.5q0 -37 6.5 -69t21 -61t43 -46t68.5 -17q48 0 91 27t73 69.5t52.5 94.5t33.5 103t11 94q0 35 -6.5 74.5t-21 81t-43 68.5t-66.5 27zM382 772q-4 0 -10 4t-10 8l-3 3q-29 32 -70 82q-35 43 -42 53t-7 21q0 13 9 22.5t23 9.5q18 0 30 -15
q1 -2 29 -51l58 -102q7 -14 7 -20q0 -15 -14 -15z" />
    <glyph glyph-name="Oacute" unicode="&#xd3;" horiz-adv-x="613" 
d="M218 -40q-56 0 -96.5 25.5t-62 68t-31.5 89.5t-10 99q0 114 39 231t112 190q68 68 144 68q11 0 32 -5t32 -5q7 0 22 1.5t23 1.5q38 0 67 -33.5t44 -82.5t22.5 -94.5t7.5 -80.5q0 -73 -23.5 -154t-65.5 -153t-109.5 -119t-146.5 -47zM373 665q-55 0 -112 -57
q-67 -67 -109 -178.5t-42 -210.5q0 -37 6.5 -69t21 -61t43 -46t68.5 -17q48 0 91 27t73 69.5t52.5 94.5t33.5 103t11 94q0 35 -6.5 74.5t-21 81t-43 68.5t-66.5 27zM364 772q-14 0 -14 15q0 6 7 20l58 102q28 49 29 51q12 15 30 15q14 0 23 -9.5t9 -22.5q0 -11 -7 -21
t-42 -53q-41 -50 -70 -82q-14 -15 -23 -15z" />
    <glyph glyph-name="Ocircumflex" unicode="&#xd4;" horiz-adv-x="613" 
d="M218 -40q-56 0 -96.5 25.5t-62 68t-31.5 89.5t-10 99q0 114 39 231t112 190q68 68 144 68q11 0 32 -5t32 -5q7 0 22 1.5t23 1.5q38 0 67 -33.5t44 -82.5t22.5 -94.5t7.5 -80.5q0 -73 -23.5 -154t-65.5 -153t-109.5 -119t-146.5 -47zM373 665q-55 0 -112 -57
q-67 -67 -109 -178.5t-42 -210.5q0 -37 6.5 -69t21 -61t43 -46t68.5 -17q48 0 91 27t73 69.5t52.5 94.5t33.5 103t11 94q0 35 -6.5 74.5t-21 81t-43 68.5t-66.5 27zM366 922q8 0 12 -5l108 -125q9 -11 9 -21q0 -13 -10 -13q-9 0 -14 6l-105 93l-112 -92q-6 -6 -14 -6
q-13 0 -13 14q0 8 9 19l119 125q4 5 11 5z" />
    <glyph glyph-name="Otilde" unicode="&#xd5;" horiz-adv-x="613" 
d="M218 -40q-56 0 -96.5 25.5t-62 68t-31.5 89.5t-10 99q0 114 39 231t112 190q68 68 144 68q11 0 32 -5t32 -5q7 0 22 1.5t23 1.5q38 0 67 -33.5t44 -82.5t22.5 -94.5t7.5 -80.5q0 -73 -23.5 -154t-65.5 -153t-109.5 -119t-146.5 -47zM373 665q-55 0 -112 -57
q-67 -67 -109 -178.5t-42 -210.5q0 -37 6.5 -69t21 -61t43 -46t68.5 -17q48 0 91 27t73 69.5t52.5 94.5t33.5 103t11 94q0 35 -6.5 74.5t-21 81t-43 68.5t-66.5 27zM427 763q-24 0 -41 8.5t-24.5 19t-19 19t-24.5 8.5q-24 0 -42 -10.5t-18 -24.5q0 -15 -14 -15t-14 15
q0 33 29 57.5t59 24.5q32 0 59 -27t50 -27q17 0 31 8.5t14 20.5q0 14 15 14q14 0 14 -16q0 -35 -21 -55t-53 -20z" />
    <glyph glyph-name="Odieresis" unicode="&#xd6;" horiz-adv-x="613" 
d="M218 -40q-56 0 -96.5 25.5t-62 68t-31.5 89.5t-10 99q0 114 39 231t112 190q68 68 144 68q11 0 32 -5t32 -5q7 0 22 1.5t23 1.5q38 0 67 -33.5t44 -82.5t22.5 -94.5t7.5 -80.5q0 -73 -23.5 -154t-65.5 -153t-109.5 -119t-146.5 -47zM373 665q-55 0 -112 -57
q-67 -67 -109 -178.5t-42 -210.5q0 -37 6.5 -69t21 -61t43 -46t68.5 -17q48 0 91 27t73 69.5t52.5 94.5t33.5 103t11 94q0 35 -6.5 74.5t-21 81t-43 68.5t-66.5 27zM301 786q-18 0 -29.5 11t-11.5 29q0 20 8.5 35.5t26.5 15.5q16 0 29.5 -12t13.5 -28q0 -51 -37 -51z
M441 786q-18 0 -29.5 11t-11.5 29q0 20 8.5 35.5t26.5 15.5q16 0 29.5 -12t13.5 -28q0 -51 -37 -51z" />
    <glyph glyph-name="multiply" unicode="&#xd7;" horiz-adv-x="452" 
d="M366 -9l-140 139l-140 -140l-26 26l140 140l-140 140l26 27l140 -140l140 140l26 -27l-140 -140l140 -140z" />
    <glyph glyph-name="Ugrave" unicode="&#xd9;" horiz-adv-x="595" 
d="M383 662q-4 0 -9.5 4t-9.5 8l-4 3q-29 32 -70 82q-35 43 -42 53t-7 21q0 13 9.5 22.5t22.5 9.5q18 0 30 -15q1 -2 29 -51l58 -102q7 -14 7 -20q0 -15 -14 -15zM581 608q0 -8 -8.5 -37t-18.5 -63t-13 -44q-51 -221 -62 -427q0 -13 0.5 -30t0.5 -23q0 -38 -26 -38
q-30 0 -30 136q0 131 14 244q-25 -49 -53 -94t-69.5 -100.5t-89.5 -89t-94 -33.5q-24 0 -43 9.5t-30 28t-18 38t-10 46t-4 44t-1 41.5q0 76 14 183t26 143q26 89 56 102q8 4 26 4q38 0 38 -27q0 -7 -4 -19q-60 -199 -60 -411q0 -104 45 -104q35 0 82.5 49.5t94.5 129t75 132
t53 104.5l10 20t13 27.5t7 20.5q5 21 8.5 31.5t15 21t30.5 10.5q25 0 25 -25z" />
    <glyph glyph-name="Uacute" unicode="&#xda;" horiz-adv-x="595" 
d="M324 662q-14 0 -14 15q0 6 7 20l58 102q28 49 29 51q12 15 30 15q14 0 23 -9.5t9 -22.5q0 -11 -7 -21t-42 -53q-41 -50 -70 -82q-14 -15 -23 -15zM581 608q0 -8 -8.5 -37t-18.5 -63t-13 -44q-51 -221 -62 -427q0 -13 0.5 -30t0.5 -23q0 -38 -26 -38q-30 0 -30 136
q0 131 14 244q-25 -49 -53 -94t-69.5 -100.5t-89.5 -89t-94 -33.5q-24 0 -43 9.5t-30 28t-18 38t-10 46t-4 44t-1 41.5q0 76 14 183t26 143q26 89 56 102q8 4 26 4q38 0 38 -27q0 -7 -4 -19q-60 -199 -60 -411q0 -104 45 -104q35 0 82.5 49.5t94.5 129t75 132t53 104.5
l10 20t13 27.5t7 20.5q5 21 8.5 31.5t15 21t30.5 10.5q25 0 25 -25z" />
    <glyph glyph-name="Ucircumflex" unicode="&#xdb;" horiz-adv-x="595" 
d="M356 852q8 0 12 -5l108 -125q9 -11 9 -21q0 -13 -10 -13q-9 0 -14 6l-105 93l-112 -92q-6 -6 -14 -6q-13 0 -13 14q0 8 9 19l119 125q4 5 11 5zM581 608q0 -8 -8.5 -37t-18.5 -63t-13 -44q-51 -221 -62 -427q0 -13 0.5 -30t0.5 -23q0 -38 -26 -38q-30 0 -30 136
q0 131 14 244q-25 -49 -53 -94t-69.5 -100.5t-89.5 -89t-94 -33.5q-24 0 -43 9.5t-30 28t-18 38t-10 46t-4 44t-1 41.5q0 76 14 183t26 143q26 89 56 102q8 4 26 4q38 0 38 -27q0 -7 -4 -19q-60 -199 -60 -411q0 -104 45 -104q35 0 82.5 49.5t94.5 129t75 132t53 104.5
l10 20t13 27.5t7 20.5q5 21 8.5 31.5t15 21t30.5 10.5q25 0 25 -25z" />
    <glyph glyph-name="Udieresis" unicode="&#xdc;" horiz-adv-x="595" 
d="M301 676q-18 0 -29.5 11t-11.5 29q0 20 8.5 35.5t26.5 15.5q16 0 29.5 -12t13.5 -28q0 -51 -37 -51zM441 676q-18 0 -29.5 11t-11.5 29q0 20 8.5 35.5t26.5 15.5q16 0 29.5 -12t13.5 -28q0 -51 -37 -51zM581 608q0 -8 -8.5 -37t-18.5 -63t-13 -44q-51 -221 -62 -427
q0 -13 0.5 -30t0.5 -23q0 -38 -26 -38q-30 0 -30 136q0 131 14 244q-25 -49 -53 -94t-69.5 -100.5t-89.5 -89t-94 -33.5q-24 0 -43 9.5t-30 28t-18 38t-10 46t-4 44t-1 41.5q0 76 14 183t26 143q26 89 56 102q8 4 26 4q38 0 38 -27q0 -7 -4 -19q-60 -199 -60 -411
q0 -104 45 -104q35 0 82.5 49.5t94.5 129t75 132t53 104.5l10 20t13 27.5t7 20.5q5 21 8.5 31.5t15 21t30.5 10.5q25 0 25 -25z" />
    <glyph glyph-name="Yacute" unicode="&#xdd;" horiz-adv-x="588" 
d="M432 367q-17 -40 -36.5 -79t-51 -91.5t-63.5 -91t-73 -65.5t-80 -27q-116 0 -116 230q0 71 1 111t8.5 102t21.5 113q24 88 52 101q9 5 30 5q34 0 34 -29q0 -3 -0.5 -5.5t-1.5 -6t-1 -5.5q-48 -182 -48 -406q0 -132 51 -132q36 0 82 52.5t90.5 135.5t71 139t47.5 107
q1 3 9.5 21t13 30.5t5.5 20.5q0 3 0.5 7t3.5 15t7 19.5t11.5 15.5t17.5 7h17q25 0 25 -29v-5q-6 -73 -15 -140q-6 -49 -13.5 -98t-23 -127t-34 -144t-47 -138t-61.5 -122.5t-78 -83t-96 -32.5q-57 0 -102 40q-27 24 -27 42q0 15 16 15q7 0 23 -13.5t40.5 -27t51.5 -13.5
q56 0 93 49q61 79 99.5 239.5t45.5 293.5zM304 712q-14 0 -14 15q0 6 7 20l58 102q28 49 29 51q12 15 30 15q14 0 23 -9.5t9 -22.5q0 -11 -7 -21t-42 -53q-41 -50 -70 -82q-14 -15 -23 -15z" />
    <glyph glyph-name="agrave" unicode="&#xe0;" horiz-adv-x="421" 
d="M476 162q0 -12 -30 -55t-80 -86t-92 -43q-23 0 -39 17t-23 44t-9.5 49t-2.5 45q-84 -132 -140 -132q-23 0 -37 19t-18.5 40.5t-4.5 44.5q0 86 72 187t154 101q11 0 22 -10.5t11 -20.5q0 -8 -10 -12q-72 -30 -127.5 -107.5t-55.5 -162.5q0 -24 13 -24q47 0 148 218
q14 30 34 30q23 0 23 -16q0 -4 -18 -58q-15 -46 -15 -111q0 -98 32 -98q48 0 149 135q14 25 28 25q16 0 16 -19zM208 432q-6 0 -14 6t-18.5 17.5t-19 22t-22 27t-19.5 24.5q-3 4 -14.5 17t-17.5 20.5t-11.5 18t-5.5 18.5q0 13 9 22.5t23 9.5q11 0 21 -7.5t14.5 -15
t12.5 -23.5t11 -20l58 -102q7 -14 7 -20q0 -15 -14 -15z" />
    <glyph glyph-name="aacute" unicode="&#xe1;" horiz-adv-x="421" 
d="M476 162q0 -12 -30 -55t-80 -86t-92 -43q-23 0 -39 17t-23 44t-9.5 49t-2.5 45q-84 -132 -140 -132q-23 0 -37 19t-18.5 40.5t-4.5 44.5q0 86 72 187t154 101q11 0 22 -10.5t11 -20.5q0 -8 -10 -12q-72 -30 -127.5 -107.5t-55.5 -162.5q0 -24 13 -24q47 0 148 218
q14 30 34 30q23 0 23 -16q0 -4 -18 -58q-15 -46 -15 -111q0 -98 32 -98q48 0 149 135q14 25 28 25q16 0 16 -19zM194 432q-14 0 -14 15q0 6 7 20l58 102q3 4 11 20t12.5 23.5t14.5 15t21 7.5q14 0 23 -9.5t9 -22.5q0 -8 -5.5 -18.5t-11.5 -18t-17.5 -20.5t-14.5 -17
q-6 -8 -19.5 -24.5t-22 -27t-19 -22t-18.5 -17.5t-14 -6z" />
    <glyph glyph-name="acircumflex" unicode="&#xe2;" horiz-adv-x="421" 
d="M196 552q8 0 12 -5l108 -125q9 -11 9 -21q0 -13 -10 -13q-9 0 -14 6l-105 93l-112 -92q-6 -6 -14 -6q-13 0 -13 14q0 8 9 19l119 125q4 5 11 5zM476 162q0 -10 -22 -41q-102 -143 -180 -143q-23 0 -39 17t-23 44t-9.5 49t-2.5 45q-84 -132 -140 -132q-23 0 -37 19
t-18.5 40.5t-4.5 44.5q0 86 72 187t154 101q11 0 22 -10.5t11 -20.5q0 -6 -10 -12q-61 -35 -98 -74q-85 -87 -85 -196q0 -24 13 -24q47 0 148 218q14 30 34 30q23 0 23 -16q0 -4 -18 -58q-15 -46 -15 -111q0 -98 32 -98q48 0 149 135q14 25 28 25q16 0 16 -19z" />
    <glyph glyph-name="atilde" unicode="&#xe3;" horiz-adv-x="421" 
d="M267 423q-24 0 -41 8.5t-24.5 19t-19 19t-24.5 8.5q-24 0 -42 -10.5t-18 -24.5q0 -15 -14 -15t-14 15q0 33 29 57.5t59 24.5q32 0 59 -27t50 -27q17 0 31 8.5t14 20.5q0 14 15 14q14 0 14 -16q0 -35 -21 -55t-53 -20zM476 162q0 -10 -22 -41q-102 -143 -180 -143
q-23 0 -39 17t-23 44t-9.5 49t-2.5 45q-84 -132 -140 -132q-23 0 -37 19t-18.5 40.5t-4.5 44.5q0 86 72 187t154 101q11 0 22 -10.5t11 -20.5q0 -6 -10 -12q-61 -35 -98 -74q-85 -87 -85 -196q0 -24 13 -24q47 0 148 218q14 30 34 30q23 0 23 -16q0 -4 -18 -58
q-15 -46 -15 -111q0 -98 32 -98q48 0 149 135q14 25 28 25q16 0 16 -19z" />
    <glyph glyph-name="adieresis" unicode="&#xe4;" horiz-adv-x="421" 
d="M141 436q-18 0 -29.5 11t-11.5 29q0 20 8.5 35.5t26.5 15.5q16 0 29.5 -12t13.5 -28q0 -51 -37 -51zM281 436q-18 0 -29.5 11t-11.5 29q0 20 8.5 35.5t26.5 15.5q16 0 29.5 -12t13.5 -28q0 -51 -37 -51zM476 162q0 -10 -22 -41q-102 -143 -180 -143q-23 0 -39 17t-23 44
t-9.5 49t-2.5 45q-84 -132 -140 -132q-23 0 -37 19t-18.5 40.5t-4.5 44.5q0 86 72 187t154 101q11 0 22 -10.5t11 -20.5q0 -6 -10 -12q-61 -35 -98 -74q-85 -87 -85 -196q0 -24 13 -24q47 0 148 218q14 30 34 30q23 0 23 -16q0 -4 -18 -58q-15 -46 -15 -111q0 -98 32 -98
q48 0 149 135q14 25 28 25q16 0 16 -19z" />
    <glyph glyph-name="aring" unicode="&#xe5;" horiz-adv-x="421" 
d="M222 428q-26 0 -39 20.5t-13 48.5q0 40 26 77.5t64 37.5q27 0 39 -21.5t12 -50.5q0 -39 -26 -75.5t-63 -36.5zM261 577q-22 0 -37 -32t-15 -57q0 -31 14 -31q23 0 40.5 31t17.5 55q0 11 -5.5 22.5t-14.5 11.5zM476 162q0 -10 -22 -41q-102 -143 -180 -143q-23 0 -39 17
t-23 44t-9.5 49t-2.5 45q-84 -132 -140 -132q-23 0 -37 19t-18.5 40.5t-4.5 44.5q0 86 72 187t154 101q11 0 22 -10.5t11 -20.5q0 -6 -10 -12q-61 -35 -98 -74q-85 -87 -85 -196q0 -24 13 -24q47 0 148 218q14 30 34 30q23 0 23 -16q0 -4 -18 -58q-15 -46 -15 -111
q0 -98 32 -98q48 0 149 135q14 25 28 25q16 0 16 -19z" />
    <glyph glyph-name="ae" unicode="&#xe6;" horiz-adv-x="511" 
d="M562 199q14 0 14 -11q0 -14 -9 -30q-41 -73 -108.5 -122t-144.5 -49q-59 0 -87 41.5t-28 103.5q-83 -131 -139 -131q-23 0 -37 19t-18.5 40.5t-4.5 44.5q0 86 72 187t154 101q11 0 22 -10.5t11 -20.5q0 -6 -10 -12q-83 -48 -133 -117t-50 -153q0 -24 13 -24q20 0 57 54.5
t64 109.5l27 54q12 25 25 29q57 101 128 101q26 0 41 -16.5t15 -43.5q0 -48 -53.5 -113t-101.5 -82q-5 -23 -5 -42q0 -74 64 -74q58 0 107.5 41t84.5 99q16 26 30 26zM392 334q0 23 -17 23q-26 0 -55 -65t-36 -105q37 23 72.5 66.5t35.5 80.5z" />
    <glyph glyph-name="ccedilla" unicode="&#xe7;" horiz-adv-x="369" 
d="M229 -9q5 -20 5 -50q0 -41 -28.5 -63.5t-69.5 -22.5q-38 0 -38 22q0 9 5.5 15.5t14.5 6.5l21 -3q16 0 32.5 13.5t16.5 29.5q0 18 -7 41q-20 -2 -31 -2q-64 0 -96.5 51.5t-32.5 118.5q0 55 20.5 111.5t65 99t101.5 42.5q81 0 81 -76q0 -32 -11 -58.5t-38 -26.5
q-11 0 -11 10q0 6 9 29t9 39q0 39 -24 39q-35 0 -64 -44t-41.5 -93t-12.5 -83q0 -44 19 -74t61 -30q62 0 114.5 40t88.5 101q16 26 30 26q16 0 16 -16q0 -7 -8 -21q-74 -131 -197 -172z" />
    <glyph glyph-name="egrave" unicode="&#xe8;" horiz-adv-x="321" 
d="M120 -13q-36 0 -55 13q-56 37 -56 123q0 55 28.5 128.5t73.5 116.5q38 36 79 36q26 0 41 -16.5t15 -43.5q0 -47 -53 -112t-102 -83q-5 -18 -5 -45q0 -37 20 -56q16 -14 45 -14q57 0 107.5 41t83.5 98q16 26 30 26t14 -11q0 -15 -9 -30q-42 -73 -110.5 -122t-146.5 -49z
M185 357q-12 0 -25 -15q-21 -24 -41.5 -76.5t-24.5 -78.5q36 22 72 66.5t36 80.5q0 23 -17 23zM192 442q-6 0 -14 5.5t-19 18t-19 22t-22.5 27t-19.5 24.5q-3 4 -11.5 13.5t-13.5 16t-11 15t-9 16t-3 13.5q0 13 9 22.5t23 9.5q11 0 21 -7.5t15 -14.5t13.5 -24t10.5 -20
l57 -102q7 -14 7 -20q0 -15 -14 -15z" />
    <glyph glyph-name="eacute" unicode="&#xe9;" horiz-adv-x="321" 
d="M120 -13q-36 0 -55 13q-56 37 -56 123q0 55 28.5 128.5t73.5 116.5q38 36 79 36q26 0 41 -16.5t15 -43.5q0 -47 -53 -112t-102 -83q-5 -18 -5 -45q0 -37 20 -56q16 -14 45 -14q57 0 107.5 41t83.5 98q16 26 30 26t14 -11q0 -15 -9 -30q-42 -73 -110.5 -122t-146.5 -49z
M185 357q-12 0 -25 -15q-21 -24 -41.5 -76.5t-24.5 -78.5q36 22 72 66.5t36 80.5q0 23 -17 23zM184 442q-14 0 -14 15q0 6 7 20l58 102q3 4 11 20t12.5 23.5t14.5 15t21 7.5q14 0 23 -9.5t9 -22.5q0 -8 -5.5 -18.5t-11.5 -18t-17.5 -20.5t-14.5 -17q-6 -8 -19.5 -24.5
t-22 -27t-19 -22t-18.5 -17.5t-14 -6z" />
    <glyph glyph-name="ecircumflex" unicode="&#xea;" horiz-adv-x="321" 
d="M120 -13q-36 0 -55 13q-56 37 -56 123q0 55 28.5 128.5t73.5 116.5q38 36 79 36q26 0 41 -16.5t15 -43.5q0 -47 -53 -112t-102 -83q-5 -18 -5 -45q0 -37 20 -56q16 -14 45 -14q57 0 107.5 41t83.5 98q16 26 30 26t14 -11q0 -15 -9 -30q-42 -73 -110.5 -122t-146.5 -49z
M185 357q-12 0 -25 -15q-21 -24 -41.5 -76.5t-24.5 -78.5q36 22 72 66.5t36 80.5q0 23 -17 23zM176 572q8 0 12 -5l108 -125q9 -11 9 -21q0 -13 -10 -13q-9 0 -14 6l-105 93l-112 -92q-6 -6 -14 -6q-13 0 -13 14q0 8 9 19l119 125q4 5 11 5z" />
    <glyph glyph-name="edieresis" unicode="&#xeb;" horiz-adv-x="321" 
d="M120 -13q-36 0 -55 13q-56 37 -56 123q0 55 28.5 128.5t73.5 116.5q38 36 79 36q26 0 41 -16.5t15 -43.5q0 -47 -53 -112t-102 -83q-5 -18 -5 -45q0 -37 20 -56q16 -14 45 -14q57 0 107.5 41t83.5 98q16 26 30 26t14 -11q0 -15 -9 -30q-42 -73 -110.5 -122t-146.5 -49z
M185 357q-12 0 -25 -15q-21 -24 -41.5 -76.5t-24.5 -78.5q36 22 72 66.5t36 80.5q0 23 -17 23zM131 446q-18 0 -29.5 11t-11.5 29q0 20 8.5 35.5t26.5 15.5q16 0 29.5 -12t13.5 -28q0 -51 -37 -51zM271 446q-18 0 -29.5 11t-11.5 29q0 20 8.5 35.5t26.5 15.5q16 0 29.5 -12
t13.5 -28q0 -51 -37 -51z" />
    <glyph glyph-name="igrave" unicode="&#xec;" horiz-adv-x="263" 
d="M114 382q-6 0 -14 6t-18.5 17.5t-19 22t-22 27t-19.5 24.5q-3 4 -14.5 17t-17.5 20.5t-11.5 18t-5.5 18.5q0 13 9 22.5t23 9.5q11 0 21 -7.5t14.5 -15t12.5 -23.5t11 -20l58 -102q7 -14 7 -20q0 -15 -14 -15zM98 119q0 -91 35 -91q59 0 162 162q14 21 25 21q13 0 13 -22
q0 -14 -27 -51q-42 -59 -94.5 -109.5t-99.5 -50.5q-28 0 -47.5 18t-28 47t-12 54.5t-3.5 51.5q0 56 21 123q21 64 72 64q23 0 23 -22q0 -16 -14 -57t-16 -49q-9 -44 -9 -89z" />
    <glyph glyph-name="iacute" unicode="&#xed;" horiz-adv-x="263" 
d="M84 382q-14 0 -14 15q0 6 7 20l58 102q3 4 11 20t12.5 23.5t14.5 15t21 7.5q14 0 23 -9.5t9 -22.5q0 -8 -5.5 -18.5t-11.5 -18t-17.5 -20.5t-14.5 -17q-6 -8 -19.5 -24.5t-22 -27t-19 -22t-18.5 -17.5t-14 -6zM98 119q0 -91 35 -91q59 0 162 162q14 21 25 21q13 0 13 -22
q0 -14 -27 -51q-42 -59 -94.5 -109.5t-99.5 -50.5q-28 0 -47.5 18t-28 47t-12 54.5t-3.5 51.5q0 56 21 123q21 64 72 64q23 0 23 -22q0 -16 -14 -57t-16 -49q-9 -44 -9 -89z" />
    <glyph glyph-name="icircumflex" unicode="&#xee;" horiz-adv-x="263" 
d="M106 532q8 0 12 -5l108 -125q9 -11 9 -21q0 -13 -10 -13q-9 0 -14 6l-105 93l-112 -92q-6 -6 -14 -6q-13 0 -13 14q0 8 9 19l119 125q4 5 11 5zM98 119q0 -91 35 -91q59 0 162 162q14 21 25 21q13 0 13 -22q0 -14 -27 -51q-42 -59 -94.5 -109.5t-99.5 -50.5
q-28 0 -47.5 18t-28 47t-12 54.5t-3.5 51.5q0 56 21 123q21 64 72 64q23 0 23 -22q0 -16 -14 -57t-16 -49q-9 -44 -9 -89z" />
    <glyph glyph-name="idieresis" unicode="&#xef;" horiz-adv-x="263" 
d="M47 386q-18 0 -29.5 11t-11.5 29q0 20 8.5 35.5t26.5 15.5q16 0 29.5 -12t13.5 -28q0 -51 -37 -51zM187 386q-18 0 -29.5 11t-11.5 29q0 20 8.5 35.5t26.5 15.5q16 0 29.5 -12t13.5 -28q0 -51 -37 -51zM98 119q0 -91 35 -91q59 0 162 162q14 21 25 21q13 0 13 -22
q0 -14 -27 -51q-42 -59 -94.5 -109.5t-99.5 -50.5q-28 0 -47.5 18t-28 47t-12 54.5t-3.5 51.5q0 56 21 123q21 64 72 64q23 0 23 -22q0 -16 -14 -57t-16 -49q-9 -44 -9 -89z" />
    <glyph glyph-name="ntilde" unicode="&#xf1;" horiz-adv-x="451" 
d="M287 473q-24 0 -41 8.5t-24.5 19t-19 19t-24.5 8.5q-24 0 -42 -10.5t-18 -24.5q0 -15 -14 -15t-14 15q0 33 29 57.5t59 24.5q32 0 59 -27t50 -27q17 0 31 8.5t14 20.5q0 14 15 14q14 0 14 -16q0 -35 -21 -55t-53 -20zM22 -36q-21 0 -21 25q0 24 2.5 51.5t5 47.5t8.5 54
t9 48.5t11 53.5t10 47q1 4 7.5 40t10.5 54t21.5 33t36.5 15q30 0 30 -34q0 -38 -26 -107q-19 -49 -27 -115q14 20 35.5 49.5t68.5 79t70 49.5q40 0 40 -97v-140q0 -60 32 -60q35 0 74 45.5t64 92.5q13 23 24 23q7 0 12 -6.5t5 -13.5q0 -3 -7 -20q-26 -56 -83.5 -113
t-108.5 -57q-73 0 -73 117v15l4 114q0 20 -9 20q-7 0 -23 -16q-37 -36 -87 -117q-31 -50 -75 -146q-16 -32 -41 -32z" />
    <glyph glyph-name="ograve" unicode="&#xf2;" horiz-adv-x="368" 
d="M25 114q0 53 21 112.5t65.5 106t100.5 46.5q50 0 72 -41t22 -96q0 -71 -26.5 -135t-80.5 -100q-40 -26 -78 -26q-49 0 -72.5 40t-23.5 93zM212 313q-35 0 -62.5 -39t-40 -84t-12.5 -78q0 -31 11.5 -56.5t38.5 -25.5q21 0 46 19q35 27 53 75.5t18 98.5q0 20 -3.5 38.5
t-16 35t-32.5 16.5zM222 412q-6 0 -14 6t-18.5 17.5t-19 22t-22 27t-19.5 24.5q-3 4 -14.5 17t-17.5 20.5t-11.5 18t-5.5 18.5q0 13 9 22.5t23 9.5q11 0 21 -7.5t14.5 -15t12.5 -23.5t11 -20l58 -102q7 -14 7 -20q0 -15 -14 -15z" />
    <glyph glyph-name="oacute" unicode="&#xf3;" horiz-adv-x="368" 
d="M25 114q0 53 21 112.5t65.5 106t100.5 46.5q50 0 72 -41t22 -96q0 -71 -26.5 -135t-80.5 -100q-40 -26 -78 -26q-49 0 -72.5 40t-23.5 93zM212 313q-35 0 -62.5 -39t-40 -84t-12.5 -78q0 -31 11.5 -56.5t38.5 -25.5q21 0 46 19q35 27 53 75.5t18 98.5q0 20 -3.5 38.5
t-16 35t-32.5 16.5zM214 412q-14 0 -14 15q0 6 7 20l58 102q3 4 11 20t12.5 23.5t14.5 15t21 7.5q14 0 23 -9.5t9 -22.5q0 -8 -5.5 -18.5t-11.5 -18t-17.5 -20.5t-14.5 -17q-6 -8 -19.5 -24.5t-22 -27t-19 -22t-18.5 -17.5t-14 -6z" />
    <glyph glyph-name="ocircumflex" unicode="&#xf4;" horiz-adv-x="368" 
d="M25 114q0 53 21 112.5t65.5 106t100.5 46.5q50 0 72 -41t22 -96q0 -71 -26.5 -135t-80.5 -100q-40 -26 -78 -26q-49 0 -72.5 40t-23.5 93zM212 313q-35 0 -62.5 -39t-40 -84t-12.5 -78q0 -31 11.5 -56.5t38.5 -25.5q21 0 46 19q35 27 53 75.5t18 98.5q0 20 -3.5 38.5
t-16 35t-32.5 16.5zM216 562q8 0 12 -5l108 -125q9 -11 9 -21q0 -13 -10 -13q-9 0 -14 6l-105 93l-112 -92q-6 -6 -14 -6q-13 0 -13 14q0 8 9 19l119 125q4 5 11 5z" />
    <glyph glyph-name="otilde" unicode="&#xf5;" horiz-adv-x="368" 
d="M25 114q0 53 21 112.5t65.5 106t100.5 46.5q50 0 72 -41t22 -96q0 -71 -26.5 -135t-80.5 -100q-40 -26 -78 -26q-49 0 -72.5 40t-23.5 93zM212 313q-35 0 -62.5 -39t-40 -84t-12.5 -78q0 -31 11.5 -56.5t38.5 -25.5q21 0 46 19q35 27 53 75.5t18 98.5q0 20 -3.5 38.5
t-16 35t-32.5 16.5zM277 413q-24 0 -41 8.5t-24.5 19t-19 19t-24.5 8.5q-24 0 -42 -10.5t-18 -24.5q0 -15 -14 -15t-14 15q0 33 29 57.5t59 24.5q32 0 59 -27t50 -27q17 0 31 8.5t14 20.5q0 14 15 14q14 0 14 -16q0 -35 -21 -55t-53 -20z" />
    <glyph glyph-name="odieresis" unicode="&#xf6;" horiz-adv-x="368" 
d="M25 114q0 53 21 112.5t65.5 106t100.5 46.5q50 0 72 -41t22 -96q0 -71 -26.5 -135t-80.5 -100q-40 -26 -78 -26q-49 0 -72.5 40t-23.5 93zM212 313q-35 0 -62.5 -39t-40 -84t-12.5 -78q0 -31 11.5 -56.5t38.5 -25.5q21 0 46 19q35 27 53 75.5t18 98.5q0 20 -3.5 38.5
t-16 35t-32.5 16.5zM157 436q-18 0 -29.5 11t-11.5 29q0 20 8.5 35.5t26.5 15.5q16 0 29.5 -12t13.5 -28q0 -51 -37 -51zM297 436q-18 0 -29.5 11t-11.5 29q0 20 8.5 35.5t26.5 15.5q16 0 29.5 -12t13.5 -28q0 -51 -37 -51z" />
    <glyph glyph-name="divide" unicode="&#xf7;" horiz-adv-x="475" 
d="M238 230q-14 0 -23 9t-9 22t9.5 23t22.5 10t22 -10t9 -23t-8.5 -22t-22.5 -9zM238 36q-13 0 -22.5 9t-9.5 22t9.5 22.5t22.5 9.5t22 -9t9 -23q0 -13 -9 -22t-22 -9zM60 148v33h355v-33h-355z" />
    <glyph glyph-name="ugrave" unicode="&#xf9;" horiz-adv-x="500" 
d="M252 402q-8 0 -23 15q-18 19 -70 82q-35 43 -42 53t-7 21q0 13 9 22.5t23 9.5q18 0 30 -15q1 -2 29 -51l58 -102q7 -14 7 -20q0 -15 -14 -15zM19 130q0 102 27 183q7 22 26 35.5t42 13.5t23 -22q0 -7 -7 -33q-47 -148 -47 -236q0 -40 19 -40q30 0 78.5 55.5t83.5 113.5
t51 95q1 3 6 15.5t8 18.5t9 14.5t13.5 12t17.5 3.5q22 0 22 -17q0 -8 -10 -38q-17 -44 -28.5 -107.5t-11.5 -109.5q0 -71 30 -71q26 0 76.5 59.5t78.5 105.5q17 28 30 28q14 0 14 -19q0 -7 -7 -21q-31 -60 -96.5 -128.5t-116.5 -68.5q-66 0 -66 141q0 25 2 38
q-113 -162 -195 -162q-25 0 -41 13.5t-22 39t-7.5 43.5t-1.5 45z" />
    <glyph glyph-name="uacute" unicode="&#xfa;" horiz-adv-x="500" 
d="M224 402q-14 0 -14 15q0 6 7 20l58 102q28 49 29 51q12 15 30 15q14 0 23 -9.5t9 -22.5q0 -11 -7 -21t-42 -53q-52 -63 -70 -82q-15 -15 -23 -15zM19 130q0 102 27 183q7 22 26 35.5t42 13.5t23 -22q0 -7 -7 -33q-47 -148 -47 -236q0 -40 19 -40q30 0 78.5 55.5
t83.5 113.5t51 95q1 3 6 15.5t8 18.5t9 14.5t13.5 12t17.5 3.5q22 0 22 -17q0 -8 -10 -38q-17 -44 -28.5 -107.5t-11.5 -109.5q0 -71 30 -71q26 0 76.5 59.5t78.5 105.5q17 28 30 28q14 0 14 -19q0 -7 -7 -21q-31 -60 -96.5 -128.5t-116.5 -68.5q-66 0 -66 141q0 25 2 38
q-113 -162 -195 -162q-25 0 -41 13.5t-22 39t-7.5 43.5t-1.5 45z" />
    <glyph glyph-name="ucircumflex" unicode="&#xfb;" horiz-adv-x="500" 
d="M236 572q8 0 12 -5l108 -125q9 -11 9 -21q0 -13 -10 -13q-9 0 -14 6l-105 93l-112 -92q-6 -6 -14 -6q-13 0 -13 14q0 8 9 19l119 125q4 5 11 5zM19 130q0 102 27 183q7 22 26 35.5t42 13.5t23 -22q0 -7 -7 -33q-47 -148 -47 -236q0 -40 19 -40q30 0 78.5 55.5t83.5 113.5
t51 95q1 3 6 15.5t8 18.5t9 14.5t13.5 12t17.5 3.5q22 0 22 -17q0 -8 -10 -38q-17 -44 -28.5 -107.5t-11.5 -109.5q0 -71 30 -71q26 0 76.5 59.5t78.5 105.5q17 28 30 28q14 0 14 -19q0 -7 -7 -21q-31 -60 -96.5 -128.5t-116.5 -68.5q-66 0 -66 141q0 25 2 38
q-113 -162 -195 -162q-25 0 -41 13.5t-22 39t-7.5 43.5t-1.5 45z" />
    <glyph glyph-name="udieresis" unicode="&#xfc;" horiz-adv-x="500" 
d="M177 436q-18 0 -29.5 11t-11.5 29q0 20 8.5 35.5t26.5 15.5q16 0 29.5 -12t13.5 -28q0 -51 -37 -51zM317 436q-18 0 -29.5 11t-11.5 29q0 20 8.5 35.5t26.5 15.5q16 0 29.5 -12t13.5 -28q0 -51 -37 -51zM19 130q0 102 27 183q7 22 26 35.5t42 13.5t23 -22q0 -7 -7 -33
q-47 -148 -47 -236q0 -40 19 -40q30 0 78.5 55.5t83.5 113.5t51 95q1 3 6 15.5t8 18.5t9 14.5t13.5 12t17.5 3.5q22 0 22 -17q0 -8 -10 -38q-17 -44 -28.5 -107.5t-11.5 -109.5q0 -71 30 -71q26 0 76.5 59.5t78.5 105.5q17 28 30 28q14 0 14 -19q0 -7 -7 -21
q-31 -60 -96.5 -128.5t-116.5 -68.5q-66 0 -66 141q0 25 2 38q-113 -162 -195 -162q-25 0 -41 13.5t-22 39t-7.5 43.5t-1.5 45z" />
    <glyph glyph-name="yacute" unicode="&#xfd;" horiz-adv-x="455" 
d="M117 -414q-42 0 -63 31.5t-21 76.5q0 47 25.5 98t68 95t83.5 78t85 63q1 19 1 57q0 77 -3 155q-33 -54 -110 -130t-121 -76q-54 0 -54 80q0 69 35 180q10 31 13 38q14 28 38 28q17 0 30 -12t13 -29q0 -8 -3.5 -18.5t-9.5 -24t-8 -17.5q-42 -105 -42 -157q0 -21 10 -21
q16 0 70 54q24 25 47.5 53.5t54.5 70t44 57.5q1 1 4.5 5.5t5.5 6.5t5.5 6t6 5.5t6.5 3t8 1.5q10 0 20 -7q16 -11 16 -111q0 -83 -3 -141.5t-12 -134.5t-31.5 -142t-57.5 -120q-66 -102 -151 -102zM290 -15q-42 -34 -71 -60t-66 -66t-56.5 -82.5t-19.5 -84.5q0 -64 39 -64
q34 0 81 60q36 48 60.5 134.5t32.5 162.5zM214 422q-14 0 -14 15q0 6 7 20l58 102q28 49 29 51q12 15 30 15q14 0 23 -9.5t9 -22.5q0 -11 -7 -21q-7 -11 -42 -53q-41 -50 -70 -82q-14 -15 -23 -15z" />
    <glyph glyph-name="ydieresis" unicode="&#xff;" horiz-adv-x="455" 
d="M167 436q-18 0 -29.5 11t-11.5 29q0 20 8.5 35.5t26.5 15.5q16 0 29.5 -12t13.5 -28q0 -51 -37 -51zM307 436q-18 0 -29.5 11t-11.5 29q0 20 8.5 35.5t26.5 15.5q16 0 29.5 -12t13.5 -28q0 -51 -37 -51zM117 -414q-42 0 -63 31.5t-21 76.5q0 47 25.5 98t68 95t83.5 78
t85 63q1 19 1 57q0 77 -3 155q-33 -54 -110 -130t-121 -76q-54 0 -54 80q0 69 35 180q10 31 13 38q14 28 38 28q17 0 30 -12t13 -29q0 -8 -3.5 -18.5t-9.5 -24t-8 -17.5q-42 -105 -42 -157q0 -21 10 -21q16 0 70 54q24 25 47.5 53.5t54.5 70t44 57.5q1 1 4.5 5.5t5.5 6.5
t5.5 6t6 5.5t6.5 3t8 1.5q10 0 20 -7q16 -11 16 -111q0 -83 -3 -141.5t-12 -134.5t-31.5 -142t-57.5 -120q-66 -102 -151 -102zM290 -15q-42 -34 -71 -60t-66 -66t-56.5 -82.5t-19.5 -84.5q0 -64 39 -64q34 0 81 60q36 48 60.5 134.5t32.5 162.5z" />
    <glyph glyph-name="OE" unicode="&#x152;" horiz-adv-x="915" 
d="M473 126q-103 -166 -255 -166q-56 0 -96.5 25.5t-62 68.5t-31.5 89.5t-10 98.5q0 74 19.5 157t55 158t94 124.5t126.5 49.5q11 0 32 -5t32 -5q7 0 22 1.5t23 1.5q90 0 127 -175q109 197 250 197q51 0 80.5 -28.5t29.5 -78.5q0 -34 -20 -34q-9 0 -15.5 14t-11.5 31t-22 31
t-44 14q-41 0 -80 -37t-66.5 -95t-45 -106.5t-28.5 -92.5q29 9 112.5 14t136.5 5q37 0 37 -5q0 -14 -9.5 -24t-23.5 -13h-3q-15 0 -81 -15l-180 -42q-3 -18 -3 -35q0 -55 11 -104t46.5 -89.5t91.5 -40.5q105 0 190 107q5 7 15.5 24t19.5 27t17 10q17 0 17 -18q0 -15 -21 -44
q-51 -73 -128.5 -120.5t-159.5 -47.5q-76 0 -122.5 47.5t-65.5 125.5zM507 460q-4 33 -11.5 64t-22.5 65t-40.5 55t-59.5 21q-71 0 -134 -78.5t-96 -182t-33 -191.5q0 -79 32.5 -133t106.5 -54q71 0 125 53t88 129l-1 26l1 26h-12q-59 0 -59 34q0 9 4.5 16t9.5 11.5t16 8.5
t16.5 5t18 4t14.5 3q13 56 37 118z" />
    <glyph glyph-name="oe" unicode="&#x153;" horiz-adv-x="571" 
d="M264 77q-24 -40 -62.5 -68t-80.5 -28q-49 0 -72.5 40t-23.5 93t21 112.5t65.5 106t100.5 46.5q38 0 60.5 -26.5t30.5 -67.5q59 119 137 119q26 0 41 -16.5t15 -43.5q0 -48 -53.5 -113t-101.5 -82q-5 -23 -5 -42q0 -73 65 -73q58 0 107 40.5t84 98.5q16 26 30 26t14 -11
q0 -12 -8 -28q-41 -74 -111 -123.5t-147 -49.5q-85 0 -106 90zM452 334q0 23 -17 23q-26 0 -55 -65t-36 -105q37 23 72.5 66.5t35.5 80.5zM212 313q-35 0 -62.5 -39t-40 -84t-12.5 -78q0 -31 11.5 -56.5t38.5 -25.5q21 0 46 19q35 28 53 76t18 98q0 20 -3.5 38.5t-16 35
t-32.5 16.5z" />
    <glyph glyph-name="Scaron" unicode="&#x160;" horiz-adv-x="557" 
d="M406 748q-9 0 -13 4l-123 126q-10 10 -10 21q0 13 12 13q10 0 16 -6l118 -93l127 92q10 6 16 6q14 0 14 -14q0 -9 -10 -19l-134 -126q-5 -4 -13 -4zM425 567q0 17 33 47.5t33 45.5q0 20 -49 20q-40 0 -68 -5q-58 -10 -113.5 -48.5t-55.5 -89.5q0 -29 20.5 -60t51.5 -57.5
t67.5 -58.5t67.5 -61t51.5 -66t20.5 -74q0 -44 -26.5 -78t-65.5 -53t-90 -31.5t-93 -16.5t-81 -4q-26 0 -53 3l-13 1q-14 1 -21.5 2.5t-18.5 4.5t-16.5 8.5t-5.5 12.5q0 10 5 15t10 6t17 1q16 0 48.5 -6.5t49.5 -6.5q33 0 75.5 5.5t91.5 17.5t82 37.5t33 60.5q0 30 -31 65
t-75 68.5t-88.5 70.5t-75.5 84.5t-31 97.5q0 56 37 95.5t96.5 58t113 26.5t106.5 8q24 0 45.5 -3.5t42 -17.5t20.5 -37q0 -39 -30 -67q-16 -16 -44 -31t-47 -15q-11 0 -18.5 7t-7.5 18z" />
    <glyph glyph-name="scaron" unicode="&#x161;" horiz-adv-x="389" 
d="M146 528q-9 0 -13 4l-123 126q-10 10 -10 21q0 13 12 13q10 0 16 -6l118 -93l127 92q10 6 16 6q14 0 14 -14q0 -9 -10 -19l-134 -126q-5 -4 -13 -4zM160 328q10 -24 36.5 -72.5t42 -89t15.5 -78.5q0 -44 -23 -77q31 0 85.5 51.5t80.5 90.5q15 22 26 22q15 0 15 -20
q0 -3 -9 -21q-60 -94 -131 -140.5t-175 -46.5q-84 0 -118 33q-11 11 -11 22q0 15 16 15q4 0 18 -7q25 -19 71 -19q39 0 60 24t21 63q0 42 -21.5 97.5t-48.5 96.5q-42 -120 -98 -176q-16 -16 -26 -16q-14 0 -14 14q0 10 12 26q68 85 102 191q-9 25 -9 53q0 36 20.5 76.5
t53.5 40.5q17 0 24.5 -17t7.5 -37q0 -40 -23 -99z" />
    <glyph glyph-name="Ydieresis" unicode="&#x178;" horiz-adv-x="588" 
d="M261 705q-17 0 -29 11.5t-12 28.5q0 20 8.5 35.5t26.5 15.5q16 0 29.5 -11.5t13.5 -28.5q0 -51 -37 -51zM401 705q-17 0 -29 11.5t-12 28.5q0 20 8.5 35.5t26.5 15.5q16 0 29.5 -11.5t13.5 -28.5q0 -51 -37 -51zM432 367q-17 -40 -36.5 -79t-51 -91.5t-63.5 -91
t-73 -65.5t-80 -27q-116 0 -116 230q0 71 1 111t8.5 102t21.5 113q24 88 52 101q9 5 30 5q34 0 34 -29q0 -3 -0.5 -5.5t-1.5 -6t-1 -5.5q-48 -182 -48 -406q0 -132 51 -132q36 0 82 52.5t90.5 135.5t71 139t47.5 107q1 3 9.5 21t13 30.5t5.5 20.5q0 3 0.5 7t3.5 15t7 19.5
t11.5 15.5t17.5 7h17q25 0 25 -29v-5q-6 -73 -15 -140q-6 -49 -13.5 -98t-23 -127t-34 -144t-47 -138t-61.5 -122.5t-78 -83t-96 -32.5q-57 0 -102 40q-27 24 -27 42q0 15 16 15q7 0 23 -13.5t40.5 -27t51.5 -13.5q56 0 93 49q61 79 99.5 239.5t45.5 293.5z" />
    <glyph glyph-name="Zcaron" unicode="&#x17d;" horiz-adv-x="548" 
d="M326 678q-9 0 -13 4l-123 126q-10 10 -10 21q0 13 12 13q10 0 16 -6l118 -93l127 92q10 6 16 6q14 0 14 -14q0 -9 -10 -19l-134 -126q-5 -4 -13 -4zM451 -15q-17 0 -34 3q-23 3 -46 3h-79q-122 0 -197 -14l-6 -1q-15 0 -28 13t-13 28q0 21 29 44l2 1q10 8 69 84
q26 33 65 84t97 128.5t97.5 134.5t39.5 67t-61 10h-107q-63 0 -107 -9.5t-76 -43.5q-12 -12 -25 -12q-27 0 -27 19q0 21 22.5 62.5t40.5 50.5q5 3 11 3q2 0 8 -2h401q21 0 21 -18t-33 -62q-12 -17 -34 -50.5t-25 -38.5q-91 -134 -159 -220q-73 -92 -165 -202l177 6
q4 0 27.5 0.5t29.5 1t25 2t27.5 5t23 8.5t25.5 13.5t21 19.5q12 12 26 12q10 0 18 -5t8 -14q0 -20 -22.5 -59t-40.5 -47q-11 -5 -26 -5z" />
    <glyph glyph-name="zcaron" unicode="&#x17e;" horiz-adv-x="377" 
d="M196 428q-9 0 -13 4l-123 126q-10 10 -10 21q0 13 12 13q10 0 16 -6l118 -93l127 92q10 6 16 6q14 0 14 -14q0 -9 -10 -19l-134 -126q-5 -4 -13 -4zM19 117q-7 0 -11.5 5t-4.5 12q0 12 12 28q13 19 38 70.5t27 67.5q-6 -1 -14 -1q-59 0 -59 46q0 25 17 40t42 15t38.5 -18
t14.5 -44q64 31 114 31q39 0 61.5 -20.5t22.5 -59.5q0 -31 -17 -62t-58.5 -79t-43.5 -51q97 -63 97 -214q0 -65 -26 -132t-80 -116t-121 -49q-42 0 -68 23.5t-26 64.5q0 89 68.5 168.5t159.5 125.5q-13 40 -68 89q-24 19 -24 34q0 11 19 28q41 37 74.5 83.5t33.5 85.5
q0 34 -42 34q-37 0 -79 -19q-5 -23 -9 -34q-10 -34 -40 -93t-48 -59zM84 330q0 41 -23 41q-21 0 -21 -22q0 -20 33 -20q7 0 11 1zM213 -85q-81 -37 -139.5 -97.5t-58.5 -136.5q0 -52 41 -52q44 0 91 54q30 33 49.5 92t19.5 107q0 16 -3 33z" />
    <glyph glyph-name="circumflex" unicode="&#x2c6;" horiz-adv-x="388" 
d="M199 592q7 0 12 -5l108 -125q9 -11 9 -21q0 -13 -10 -13q-6 0 -14 6l-105 93l-112 -92q-8 -6 -14 -6q-13 0 -13 14q0 8 9 19l119 125q5 5 11 5z" />
    <glyph glyph-name="ring" unicode="&#x2da;" horiz-adv-x="261" 
d="M112 448q-26 0 -39 20.5t-13 48.5q0 40 26 77.5t64 37.5q27 0 39 -21.5t12 -50.5q0 -39 -26 -75.5t-63 -36.5zM151 597q-22 0 -37 -32t-15 -57q0 -31 14 -31q23 0 40.5 31t17.5 55q0 11 -5.5 22.5t-14.5 11.5z" />
    <glyph glyph-name="tilde" unicode="&#x2dc;" horiz-adv-x="391" 
d="M257 433q-24 0 -41 8.5t-24.5 19t-19 19t-24.5 8.5q-24 0 -42 -10.5t-18 -24.5q0 -15 -14 -15t-14 15q0 33 29 57.5t59 24.5q32 0 59 -27t50 -27q17 0 31 8.5t14 20.5q0 14 15 14q14 0 14 -16q0 -35 -21 -55t-53 -20z" />
    <glyph glyph-name="quoteleft" unicode="&#x2018;" horiz-adv-x="197" 
d="M137 641q0 -4 -9.5 -17t-18.5 -36.5t-9 -50.5q0 -7 2.5 -21.5t2.5 -20.5q0 -17 -12 -30t-29 -13q-34 0 -34 32q0 14 2 26q4 31 37.5 85.5t58.5 54.5q9 0 9 -9z" />
    <glyph glyph-name="quoteright" unicode="&#x2019;" horiz-adv-x="237" 
d="M100 461q0 2 9 17t18.5 38.5t9.5 48.5q0 7 -2.5 20.5t-2.5 21.5q0 17 12 30t29 13q34 0 34 -32q0 -10 -2 -26q-4 -30 -37.5 -85t-58.5 -55q-9 0 -9 9z" />
    <glyph glyph-name="quotedblleft" unicode="&#x201c;" horiz-adv-x="317" 
d="M137 641q0 -3 -9.5 -17.5t-18.5 -38t-9 -48.5q0 -7 2.5 -21t2.5 -21q0 -17 -12 -30t-29 -13q-34 0 -34 32q0 10 2 26q4 30 37.5 85t58.5 55q9 0 9 -9zM257 641q0 -3 -9.5 -17.5t-18.5 -38t-9 -48.5q0 -7 2.5 -21t2.5 -21q0 -17 -12 -30t-29 -13q-34 0 -34 32q0 10 2 26
q4 30 37.5 85t58.5 55q9 0 9 -9z" />
    <glyph glyph-name="quotedblright" unicode="&#x201d;" horiz-adv-x="357" 
d="M220 461q0 4 9 17t18.5 36.5t9.5 50.5q0 7 -2.5 21.5t-2.5 20.5q0 17 12 30t29 13q34 0 34 -32q0 -14 -2 -26q-4 -31 -37.5 -85.5t-58.5 -54.5q-9 0 -9 9zM100 461q0 4 9 17t18.5 36.5t9.5 50.5q0 7 -2.5 21.5t-2.5 20.5q0 17 12 30t29 13q34 0 34 -32q0 -14 -2 -26
q-4 -31 -37.5 -85.5t-58.5 -54.5q-9 0 -9 9z" />
    <glyph glyph-name="bullet" unicode="&#x2022;" horiz-adv-x="300" 
d="M150 148q-29 0 -48.5 19t-19.5 48q0 33 13.5 58.5t44.5 25.5q28 0 49.5 -19.5t21.5 -46.5q0 -40 -12.5 -62.5t-48.5 -22.5z" />
    <glyph glyph-name="ellipsis" unicode="&#x2026;" horiz-adv-x="838" 
d="M141 0q-18 0 -29.5 11t-11.5 29q0 20 8.5 35.5t26.5 15.5q16 0 29.5 -12t13.5 -28q0 -51 -37 -51zM441 0q-18 0 -29.5 11t-11.5 29q0 20 8.5 35.5t26.5 15.5q16 0 29.5 -12t13.5 -28q0 -51 -37 -51zM741 0q-18 0 -29.5 11t-11.5 29q0 20 8.5 35.5t26.5 15.5
q16 0 29.5 -12t13.5 -28q0 -51 -37 -51z" />
    <glyph glyph-name="guilsinglleft" unicode="&#x2039;" horiz-adv-x="381" 
d="M60 171q0 9 8 14l202 130q18 11 34 11q17 0 17 -11q0 -13 -6 -18l-150 -126l148 -135q5 -4 5 -16q0 -16 -18 -16q-15 0 -30 10l-202 144q-8 6 -8 13z" />
    <glyph glyph-name="guilsinglright" unicode="&#x203a;" horiz-adv-x="381" 
d="M321 171q0 -7 -8 -13l-202 -144q-15 -10 -30 -10q-18 0 -18 16q0 12 5 16l148 135l-150 126q-6 5 -6 18q0 11 17 11q16 0 34 -11l202 -130q8 -5 8 -14z" />
    <glyph glyph-name="trademark" unicode="&#x2122;" horiz-adv-x="674" 
d="M323 180v268h70l76 -196l74 196h71v-268h-48v215l-20 -53l-42 -108l-20 -54h-32l-82 215v-215h-47zM144 180v232h-84v36h213v-36h-84v-232h-45z" />
    <glyph glyph-name="minus" unicode="&#x2212;" horiz-adv-x="475" 
d="M60 165v33h355v-33h-355z" />
    <glyph glyph-name="_265" horiz-adv-x="250" 
 />
  </font>
</defs>
</svg>
